<?xml version="1.0" encoding="iso-8859-1"?>
<!-- Generator: Adobe Illustrator 18.1.1, SVG Export Plug-In . SVG Version: 6.00 Build 0)  -->
<svg version="1.1" id="Capa_1" xmlns="http://www.w3.org/2000/svg" xmlns:xlink="http://www.w3.org/1999/xlink" x="0px" y="0px"
	 viewBox="0 0 210.361 210.361" style="enable-background:new 0 0 210.361 210.361;" xml:space="preserve">
<g>
	<g>
		<path style="fill:rgb(0 0 0 / 60%);" d="M64.546,55.429H48.957c-0.988,0-1.789,0.809-1.789,1.807c0,0.991,0.802,1.8,1.789,1.8h15.589
			c0.988,0,1.797-0.809,1.797-1.8C66.343,56.238,65.534,55.429,64.546,55.429z"/>
		<path style="fill:rgb(0 0 0 / 60%);" d="M79.792,26.748c0.694-0.701,0.694-1.85,0-2.548l-9.981-9.967c-0.344-0.347-0.791-0.537-1.267-0.537
			c-0.483,0-0.931,0.19-1.27,0.533c-0.705,0.698-0.701,1.836,0,2.541l9.967,9.981C77.913,27.418,79.127,27.407,79.792,26.748z"/>
		<path style="fill:rgb(0 0 0 / 60%);" d="M80.755,87.714c-0.34-0.34-0.795-0.53-1.274-0.53s-0.934,0.19-1.274,0.533l-9.978,9.974
			c-0.705,0.701-0.705,1.857,0,2.562c0.873,0.859,1.675,0.866,2.566-0.014l9.967-9.974C81.453,89.564,81.453,88.416,80.755,87.714z"
			/>
		<path style="fill:rgb(0 0 0 / 60%);" d="M105.793,17.715c0.991-0.014,1.8-0.823,1.807-1.814l-0.007-14.097c0-0.988-0.82-1.793-1.829-1.804
			c-0.963,0.011-1.772,0.82-1.772,1.804v14.115c0,0.608,0.283,1.02,0.519,1.249C104.859,17.518,105.302,17.705,105.793,17.715z"/>
		<path style="fill:rgb(0 0 0 / 60%);" d="M138.883,130.098v-93.34c0-9.81-7.977-17.787-17.787-17.787c-7.644,0-14.119,4.867-16.631,11.642
			C90.837,31.83,80.114,43.301,80.114,57.237c0,13.542,10.121,24.73,23.187,26.476v46.382
			c-14.816,6.911-24.311,21.742-24.311,38.158c0,23.212,18.889,42.109,42.105,42.109s42.098-18.893,42.098-42.105
			C163.194,151.84,153.699,137.009,138.883,130.098z M83.708,57.237c0-11.635,8.643-21.248,19.838-22.862
			c-0.104,0.787-0.243,1.564-0.243,2.384v43.279C92.225,78.32,83.708,68.775,83.708,57.237z M121.096,206.221
			c-20.933,0-37.961-17.035-37.961-37.964c0-15.217,9.051-28.924,23.055-34.912l1.253-0.533V36.758
			c0-7.526,6.127-13.646,13.65-13.646c7.523,0,13.646,6.12,13.646,13.646v96.053l1.26,0.533
			c14.008,5.987,23.051,19.694,23.051,34.912C159.053,189.189,142.028,206.221,121.096,206.221z"/>
		<path style="fill:rgb(0 0 0 / 60%);" d="M123.164,145.14v-17.848c0-1.138-0.93-2.072-2.069-2.072c-1.149,0-2.072,0.934-2.072,2.072v17.848
			c-11.825,1.045-21.097,10.962-21.097,23.059c0,12.802,10.372,23.177,23.169,23.177c12.791,0,23.166-10.371,23.166-23.177
			C144.262,156.102,134.989,146.185,123.164,145.14z M121.096,187.231c-10.497,0-19.025-8.536-19.025-19.029
			c0-10.25,8.167-18.574,18.331-18.957c0.218,0.079,0.444,0.147,0.694,0.147c0.24,0,0.472-0.068,0.691-0.147
			c10.16,0.379,18.331,8.707,18.331,18.957C140.121,178.696,131.582,187.231,121.096,187.231z"/>
	</g>
</g>
</svg>
