<svg xmlns="http://www.w3.org/2000/svg" xmlns:xlink="http://www.w3.org/1999/xlink" viewBox="0 0 118.55 175.24"><defs><linearGradient id="baff25af-35bc-4502-afb0-a762d09b773e" x1="1.1" y1="18.64" x2="66.53" y2="18.64" gradientUnits="userSpaceOnUse"><stop offset="0" stop-color="#bddcfd"/><stop offset="1" stop-color="#5f98ed"/></linearGradient></defs><g style="isolation:isolate"><g id="e327ce16-6fdb-450e-a55d-f4a28d4479ed" data-name="Layer 2"><g id="bdf9892e-dd36-4530-b31c-883adfdae478" data-name="Layer 1"><path d="M25.17,117c13.33,13.33,12,17.88,11.38,25.85C35.91,150.62,53,152.19,47.21,169h3.65s24.38-4.39,21.46-16.75S51,154.37,50.7,145.59s11.86-19.67,7-24.55-7.47,11.22-15,7,5-15.28,3.09-23.08-7.16,1-16.75,4.22c-8.83,3-3.46-20.06-10.56-17.51C17,97.55,16.21,108,25.17,117Z" fill="#bddcfd"/><path d="M15.25,134.37c2.61,8.13,23.09,12.69,15,19S29.4,169,29.4,169H47.21c5.81-16.81-11.3-18.38-10.66-26.17.65-8,2-12.52-11.38-25.85-9-9-8.15-19.43-6.66-25.32a7.7,7.7,0,0,0-2.12,1.25c-10.24,8,2.44,23.74,5,27.48S12.65,126.24,15.25,134.37Z" fill="#e4ecf4"/><path d="M106.36,119.13c-12.78,12.78-11.53,17.14-10.91,24.78.61,7.47-15.79,9-10.22,25.09H81.74S58.36,164.79,61.16,153s20.42,2,20.73-6.39S70.51,127.7,75.19,123s7.17,10.75,14.34,6.69-4.83-14.64-3-22.12,6.85.93,16.05,4.05c8.47,2.87,3.32-19.24,10.12-16.79C114.17,100.5,115,110.53,106.36,119.13Z" fill="#bddcfd"/><path d="M115.87,135.8c-2.5,7.8-22.14,12.16-14.34,18.24s.78,15,.78,15H85.23c-5.57-16.12,10.83-17.62,10.22-25.09-.62-7.64-1.87-12,10.91-24.78,8.59-8.6,7.81-18.63,6.38-24.27a7.54,7.54,0,0,1,2,1.2c9.83,7.64-2.33,22.76-4.83,26.34S118.36,128,115.87,135.8Z" fill="#e4ecf4"/><path d="M49,145.74c1.54,1.45,1.42,4.79,1.33,6a15.22,15.22,0,0,1,1.48,3.47A16,16,0,0,1,53.77,152a15.17,15.17,0,0,0,1.73-2.72,9.94,9.94,0,0,1,1-3,12.25,12.25,0,0,0-.36-6.27,8.38,8.38,0,0,1-3.4-2.86c-1.2-1.69,1.95-4.47,3.45-2.7,1.37,1.61.64,5.14.51,5.73a12.78,12.78,0,0,1,.45,5.08c.13-.17.25-.34.4-.52,1.46-1.79,5.4.79,3.93,2.93-1.22,1.78-4.68,2.15-5.79,2.23a16.53,16.53,0,0,1-1.58,2.41,17.55,17.55,0,0,0-3.52,9.71,7.88,7.88,0,0,1,2-1.11,9.47,9.47,0,0,1,3.65-3.77c2-1.19,4.8,2.58,2.69,4.09-1.74,1.25-5.06.45-6.17.13a4.72,4.72,0,0,0-2.19,1.42l0,0a24.47,24.47,0,0,0,.51,6.22.24.24,0,0,1-.17.29h-.06a.26.26,0,0,1-.24-.19,24.23,24.23,0,0,1,.79-13v0c.24-.68-.65-2.68-1.44-4.12a9.53,9.53,0,0,1-4.44-2.86C44,147.46,47.14,144,49,145.74Z" fill="#e4ecf4"/><path d="M81.93,141.69c-.92,1.9.37,5,.89,6.07a15.82,15.82,0,0,0-.16,3.77,15.55,15.55,0,0,0-2.93-2.27,14.85,14.85,0,0,1-2.57-1.93,10.4,10.4,0,0,0-2-2.45,12.14,12.14,0,0,1-1.89-6A8.17,8.17,0,0,0,75.39,135c.53-2-3.4-3.48-4.18-1.3-.71,2,1.23,5,1.56,5.54a12.65,12.65,0,0,0,1.38,4.92l-.56-.35c-2-1.16-4.77,2.65-2.64,4.13,1.78,1.24,5.14.36,6.21,0a15.55,15.55,0,0,0,2.33,1.69,17.64,17.64,0,0,1,6.73,7.85,7.52,7.52,0,0,0-2.27-.34A9.56,9.56,0,0,0,79.2,155c-2.28-.4-3.58,4.12-1.07,4.79,2.07.55,4.89-1.38,5.82-2.07a4.66,4.66,0,0,1,2.55.55l0,0a23.91,23.91,0,0,1,1.72,6,.24.24,0,0,0,.27.21h.06a.24.24,0,0,0,.15-.26,24.26,24.26,0,0,0-5.33-11.86l0,0c-.46-.55-.33-2.73-.11-4.36a9.5,9.5,0,0,0,3.14-4.25C87.26,141.51,83.07,139.36,81.93,141.69Z" fill="#e4ecf4"/><path d="M42.46,168.89c-.19.28-30.18,0-30.18,0s-5.21-6.35,3.56-11c5-2.62-3.69-7.45-1-12.56s8.25,1.45,10.59-3.08,7.26-14.76,9.28-8.39-7.81,10.32-1.35,15,14.47,7.14,6.56,8.87S46.71,162.54,42.46,168.89Z" fill="#bddcfd"/><path d="M3.73,151.21c2.15.16,4.21,2.9,4.9,3.91a15.46,15.46,0,0,1,3.41,1.8,15.78,15.78,0,0,1-.5-3.75,16.56,16.56,0,0,0-.16-2.06,9.4,9.4,0,0,1-5,.45c-2.33-.37-2.08-5.17.57-5,1.41.1,2.77,1.31,3.74,2.41a9.22,9.22,0,0,1-.68-2.16,12.43,12.43,0,0,0-4.32-4.75A8.34,8.34,0,0,1,1.2,142c-2-.56-1.33-4.8,1-4.36,2.13.41,3.82,3.68,4.09,4.23a13.11,13.11,0,0,1,3.63,3.74c0-.21,0-.43,0-.67,0-2.36,4.79-2.84,5-.2.18,2.2-2.33,4.72-3.16,5.49a16.52,16.52,0,0,1,.29,2.93c0,.28,0,.55,0,.82a9.94,9.94,0,0,1,.61-2.55c.81-2.22,5.48-1,4.77,1.52-.56,2.05-3.56,3.52-4.72,4,0,0-.18,1.58,2.77,6.17a7.56,7.56,0,0,1,.88-2.18,9.57,9.57,0,0,1,.47-5.34c.81-2.21,5.47-1,4.77,1.52-.58,2.11-3.74,3.61-4.82,4.07a4.89,4.89,0,0,0-.83,2.53s0,0,0,0a25.14,25.14,0,0,0,4.4,4.61.24.24,0,0,1,.05.34l0,0a.24.24,0,0,1-.3,0A24.71,24.71,0,0,1,12.34,158s0,0,0,0c-.25-.69-2.25-1.7-3.8-2.34a9.76,9.76,0,0,1-5.37.58C.83,155.82,1.09,151,3.73,151.21Z" fill="#e4ecf4"/><path d="M91,38c3.51,5.35,7.84,22.15,12.83,19,3.55-2.22-1.63-15.62-3.08-22Z" fill="#f28ca0"/><path d="M103.52,41c-2.94-13.63-10.68-20.38-17.57-21-1.14-.1,4.28,16.49,6.7,23.74C93.5,43.78,102.11,41.33,103.52,41Z" fill="#bddcfd"/><path d="M84.62,51.6c-1.07-.56-4.35-1.18-4.81-2.3-.36-.9,0-2.1-.65-2.78s-2-.6-3-.57a3,3,0,0,0-2.63,1.48,3.93,3.93,0,0,0,.31,3.31,1.09,1.09,0,0,0,.75.69,24.59,24.59,0,0,1,4.51,1.9c.87.55,2.59,1,3.34,1.7C83.31,54.08,85,52.85,84.62,51.6Z" fill="#ffb092"/><polygon points="93.87 167.19 94.46 169.38 91.6 169.59 91.94 167.45 93.87 167.19" fill="#ff97a6"/><path d="M91.55,169a2.43,2.43,0,0,1,1.36.13c.6.29,1.53-.29,1.65-.35s.71,0,1,1.06,5.16,2.77,5,5c-.06,1.2-8.17-.64-9.36-2.76C90.48,170,91.55,169,91.55,169Z" fill="#1d2149"/><polygon points="59.08 167.19 58.49 169.38 61.34 169.59 61.01 167.45 59.08 167.19" fill="#ff97a6"/><path d="M61.4,169a2.46,2.46,0,0,0-1.37.13c-.6.29-1.52-.29-1.65-.35s-.7,0-1,1.06-5.16,2.77-5,5c0,1.2,8.17-.64,9.36-2.76C62.47,170,61.4,169,61.4,169Z" fill="#1d2149"/><path d="M54,71.76c1,23.73,3.95,95,4.49,95.74a2.69,2.69,0,0,0,2.5.76,2.89,2.89,0,0,0,.42-.15s0-.05.06-.1c.67-2.06,8.23-38.66,15-63.66,6.8,25,14.38,61.6,15,63.66,0,.05,0,.1,0,.1l.07,0a2.69,2.69,0,0,0,2.86-.63c.52-.69,1-69.36,1.17-95.74Z" fill="#1d2149"/><path d="M94.65,76.28c-8.34,4.74-32.12,6.91-41.25,0-3.61-14.72-3.49-35.15,2.06-49.69,7.4-9.74,36.74-14.79,38.35,5.92C94.54,45.61,102.11,68.63,94.65,76.28Z" fill="#5f98ed"/><path d="M66,78.08a5,5,0,0,1,.35-2,4.91,4.91,0,0,1,1.32-1.64,3.17,3.17,0,0,0,1.17-2.4c0-.74-.27-1.44-.27-2.18a5.7,5.7,0,0,1,1-3c.59-.94,1.3-1.8,1.92-2.73.28-.42,1-1.39.67-1.92-.22-.32-.79-.41-1.13-.47a16.84,16.84,0,0,0-2.24-.14c-1.53,0-3.06,0-4.58-.17-2.77-.27-6.4-1.11-7.34-4.13-1-3.23,1-6.38,1.79-9.39.46-1.76.33-3.59.92-5.31a13.43,13.43,0,0,1,2.72-4.33,23.47,23.47,0,0,0,3.16-4,15.06,15.06,0,0,0,1.65-4.82,17.16,17.16,0,0,0-1.24-9.57c-4.48,1.53-8.32,3.91-10.41,6.66-5.55,14.54-5.67,35-2.06,49.69,3.12,2.36,8,3.66,13.31,4.16A4.29,4.29,0,0,1,66,78.08Z" fill="#1a2326" opacity="0.2" style="mix-blend-mode:multiply"/><path d="M91.64,168.13l-.07,0s0-.05,0-.1c-.67-2.06-8.25-38.66-15-63.66-6.81,25-14.37,61.6-15,63.66,0,.05,0,.1-.06.1a2.89,2.89,0,0,1-.42.15c.44-2.12,8.25-40.47,10.29-54.44,2-13.53-6.27-28-6.75-28.91.48.41,6.14,4.14,6.83,5.11,1.7,2.34,4.93,2.1,7.1,1.84,1.36-.16,2.11,6.19,3.59,3.78,2-3.28-3.71-20.8,5.72-14.07-.13.51-7,27.12-4.8,37.28C85,128.45,94.29,158.82,91.64,168.13Z" opacity="0.1"/><path d="M77.76,20.27c0,.75-1.37,1.36-3.05,1.36s-3.06-.61-3.06-1.36,1.37-1.35,3.06-1.35S77.76,19.52,77.76,20.27Z" fill="#1d2149"/><path d="M79.51,9.4s1.43-1.11,2.09.17-.86,3.2-2.09,3.07Z" fill="#ff97a6"/><path d="M79.51,10.12a.82.82,0,0,1,1.23.27,1.72,1.72,0,0,1-1.23,2.15Z" fill="#231f20" opacity="0.1"/><path d="M70.18,9.4s-1.43-1.11-2.09.17.86,3.2,2.09,3.07Z" fill="#ff97a6"/><path d="M70.18,12.54a1.73,1.73,0,0,1-1.24-2.15.83.83,0,0,1,1.24-.27Z" fill="#231f20" opacity="0.1"/><path d="M80.58,4c.87,1.21.83,3.47-.66,5.92s-10.17.8-10.17.8S66.45,5,70,3.45c0,0-.1-3.93,3.78-3.4A9.24,9.24,0,0,1,80.58,4Z" fill="#1d2149"/><path d="M76.81,19.8A2.75,2.75,0,0,1,74.69,21a3.36,3.36,0,0,1-2.31-1.13s.05-1.21.09-2.23c0-.67,0-1.26,0-1.35h4.26l0,1.74v1.8Z" fill="#ff97a6"/><path d="M76.8,18a3.46,3.46,0,0,1-2,.93,4,4,0,0,1-2.37-1.3c0-.68,0-1.27,0-1.37h4.26Z" fill="#231f20" opacity="0.1"/><path d="M79.62,5.85c-.31-2.15-9.24-2.15-9.55,0,0,0-.75,7.78.32,9.16s3.11,3,4.45,3,3.4-1.6,4.46-3S79.62,5.85,79.62,5.85Z" fill="#ff97a6"/><path d="M70.89,6.56a2.89,2.89,0,0,0,.88-.14c.24-.08.43-.25.66-.35s.58,0,.88.27A3.43,3.43,0,0,0,74.68,7a10.77,10.77,0,0,0,3.3.17,9.2,9.2,0,0,0,1.71-.39c0-.55-.07-.9-.07-.9-.31-2.15-9.24-2.15-9.55,0,0,0,0,.25-.06.65A4.25,4.25,0,0,0,70.89,6.56Z" fill="#231f20" opacity="0.1"/><path d="M72.78,11.69a.87.87,0,1,1-1.73,0,.87.87,0,0,1,1.73,0Z" fill="#231f20" opacity="0.1"/><path d="M79,11.69a.87.87,0,1,1-.86-.86A.86.86,0,0,1,79,11.69Z" fill="#231f20" opacity="0.1"/><path d="M77.37,3.06c-1.5-.31-3.7.36-5.14.9a3,3,0,0,0-1.9.24c-1.14.59-1.77,2.32-.51,2.28.71,0,1.51-.77,2.08-1.43,2,.76,5.94,2.14,7.83,1.64C82.31,6,79.78,3.57,77.37,3.06Z" fill="#1d2149"/><path d="M75.1,13.64a1.18,1.18,0,0,1-.79-.45.19.19,0,0,1,0-.27.19.19,0,0,1,.27,0,.74.74,0,0,0,.48.29c.16,0,.31-.13.46-.37a.2.2,0,0,1,.27-.06.2.2,0,0,1,.06.27,1,1,0,0,1-.78.55Z" fill="#1d2149"/><path d="M73.77,15.32a9.25,9.25,0,0,1,2.67,0A1.72,1.72,0,0,1,73.77,15.32Z" fill="#fff"/><path d="M76.51,8.56a10.61,10.61,0,0,0,2.33,0c.23-.18-.36-.7-1.3-.59S76.28,8.52,76.51,8.56Z" fill="#1d2149"/><path d="M78.28,9.71a.57.57,0,0,1-.52.61.57.57,0,0,1-.52-.61.57.57,0,0,1,.52-.61.43.43,0,0,1,.22.06.28.28,0,0,0-.18.27.27.27,0,0,0,.24.28.23.23,0,0,0,.21-.17A.51.51,0,0,1,78.28,9.71Z" fill="#1d2149"/><path d="M70.89,8.56a10.53,10.53,0,0,0,2.32,0c.24-.18-.35-.7-1.3-.59S70.65,8.52,70.89,8.56Z" fill="#1d2149"/><path d="M72.65,9.71a.52.52,0,1,1-1,0,.57.57,0,0,1,.52-.61.43.43,0,0,1,.22.06.28.28,0,0,0-.18.27.27.27,0,0,0,.24.28.23.23,0,0,0,.21-.17A.5.5,0,0,1,72.65,9.71Z" fill="#1d2149"/><path d="M94.14,21.86a14.33,14.33,0,0,0-20,19.86L50,75.77l3.89,2.75L57,74.06l3.6,2.55,3.54-5-1.75-1.24,2.77-3.9,1.75,1.23,3.28-4.64-1.75-1.24,2.76-3.89L73,59.17l3.29-4.65-1.75-1.24,2.76-3.89L79,50.63l2.44-3.45A14.32,14.32,0,0,0,94.14,21.86Zm-7.2,17.6a6,6,0,0,1-4.54-1,5.94,5.94,0,0,1-2.52-4.9A5.88,5.88,0,0,1,81,30.1a6,6,0,1,1,6,9.36Z" fill="#e4ecf4"/><path d="M79.43,48.31c-1-.63-4.28-1.42-4.68-2.56-.31-.92.15-2.1-.5-2.82S72.46,41.32,72,43c-1.06,0-2.91-.37-3.44.55a4,4,0,0,0,.13,3.33,1.35,1.35,0,0,0,.24.42,1.22,1.22,0,0,0,.47.3,25.71,25.71,0,0,1,4.41,2.15c.84.6,2.52,1.14,3.24,1.88C78,50.71,79.71,49.57,79.43,48.31Z" fill="#ff97a6"/><path d="M98.67,47.39c-3-1.07-21.12-1.2-24.62-2.09-1.43,1.29-.72,1.79-1.72,3.45,3.85,4.11,24.35,12.25,30.79,9.84C106.83,55.56,104.21,49.37,98.67,47.39Z" fill="#ff97a6"/><path d="M64.51,56.84c1.2-.14,4.49.48,5.32-.4.66-.7.73-2,1.62-2.35s2.29-.73,2,1c1,.42,2.8.87,2.9,1.93a4,4,0,0,1-1.49,3,1.37,1.37,0,0,1-.39.29,1.34,1.34,0,0,1-.56.08,25,25,0,0,0-4.9.13c-1,.2-2.77,0-3.73.37C64.83,59.62,63.73,57.87,64.51,56.84Z" fill="#ff97a6"/><path d="M70.15,56.79c-5-1.47-14.25-7.93-14.25-7.93s-3.58-5.42.84-15.82c-1.88,0-2.67-.08-4.55,0-4.69,9.62-4.8,17.46-3.92,20.14C51.84,64,69,62.59,71.93,60.18,72.2,59.42,71.58,58.09,70.15,56.79Z" fill="#ff97a6"/><path d="M55,44.32c1.28-4.38,4.48-17.66,10-24.27-6.79.58-15.25,10.19-18.46,22.22C48.51,42.35,53.11,44.26,55,44.32Z" fill="#bddcfd"/><g opacity="0.9"><path d="M66.53,10.47l0,16.18A6.29,6.29,0,0,1,60.29,32H7.37a6.17,6.17,0,0,1-2.74-.64A6.28,6.28,0,0,1,1.1,26V26l0-15.54A5.08,5.08,0,0,1,6.23,5.32l55.19,0A5.11,5.11,0,0,1,66.53,10.47Z" fill="url(#baff25af-35bc-4502-afb0-a762d09b773e)"/><rect x="7.33" y="25.14" width="11.17" height="0.64" fill="#fff"/><rect x="21.56" y="25.14" width="11.17" height="0.64" fill="#fff"/><rect x="35.79" y="25.14" width="11.17" height="0.64" fill="#fff"/><rect x="50.02" y="25.14" width="11.17" height="0.64" fill="#fff"/><path d="M14.67,14l-1.54,2v0l2.45-.32v1.1l-2.45-.29v0l1.56,1.95-1,.58-1-2.27h0L11.6,19.1l-.92-.59,1.54-2v0l-2.4.31v-1.1L12.2,16v0l-1.52-2,1-.57,1,2.25h0l1-2.27Z" fill="#fff"/><path d="M28.77,14l-1.54,2v0l2.45-.32v1.1l-2.45-.29v0l1.56,1.95-1,.58-1-2.27h0L25.71,19.1l-.93-.59,1.54-2v0l-2.4.31v-1.1l2.39.31v0l-1.53-2,1-.57,1,2.25h0l1-2.27Z" fill="#fff"/><path d="M42.88,14l-1.54,2v0l2.45-.32v1.1l-2.45-.29v0l1.55,1.95-1,.58-1-2.27h0L39.81,19.1l-.92-.59,1.54-2v0l-2.4.31v-1.1l2.38.31v0l-1.52-2,1-.57,1,2.25h0l1-2.27Z" fill="#fff"/></g><path d="M108.56,11.5h-2.19V9.31a.44.44,0,0,0-.43-.44.44.44,0,0,0-.44.44V11.5h-2.19a.43.43,0,0,0-.43.43.44.44,0,0,0,.13.31.41.41,0,0,0,.3.12h2.19v2.19a.44.44,0,1,0,.87,0V12.36h2.19a.43.43,0,0,0,0-.86Z" fill="#bddcfd"/><path d="M31.21,78.34a3.47,3.47,0,1,1,3.47-3.47A3.47,3.47,0,0,1,31.21,78.34Zm0-5.6a2.14,2.14,0,1,0,2.13,2.13A2.14,2.14,0,0,0,31.21,72.74Z" fill="#bddcfd"/></g></g></g></svg>