<svg xmlns="http://www.w3.org/2000/svg" xmlns:xlink="http://www.w3.org/1999/xlink" viewBox="0 0 129.29 192.39"><defs><style>.cls-1{isolation:isolate;}.cls-2{fill:#bddcfd;}.cls-3{fill:#e4ecf4;}.cls-4{fill:url(#linear-gradient);}.cls-18,.cls-5,.cls-9{fill:#fff;}.cls-5{opacity:0.55;mix-blend-mode:soft-light;}.cls-6{fill:#55358d;opacity:0.18;}.cls-15,.cls-6{mix-blend-mode:multiply;}.cls-7{fill:#fa95a8;}.cls-8{fill:#202234;}.cls-10{fill:#ff97a6;}.cls-11{fill:#2b3e6d;}.cls-12{fill:#242650;}.cls-13{fill:#1d2149;}.cls-14{fill:#2d305e;}.cls-15{fill:#1a2326;}.cls-15,.cls-18{opacity:0.2;}.cls-16{fill:#5f98ed;}.cls-17{fill:#f28b9e;}</style><linearGradient id="linear-gradient" x1="492.22" y1="-304.4" x2="606.5" y2="-304.4" gradientTransform="matrix(0.94, 0.15, -0.33, 1.01, -548.75, 261.44)" gradientUnits="userSpaceOnUse"><stop offset="0" stop-color="#bddcfd"/><stop offset="1" stop-color="#5f98ed"/></linearGradient></defs><g class="cls-1"><g id="Layer_2" data-name="Layer 2"><g id="Layer_1-2" data-name="Layer 1"><path class="cls-2" d="M92.71,115.72c-16.42,16.42-14.82,22-14,31.84.78,9.6-20.29,11.53-13.13,32.25H61.07s-30-5.41-26.44-20.63,26.23,2.6,26.63-8.21-14.62-24.24-8.61-30.25,9.21,13.82,18.43,8.61-6.21-18.82-3.81-28.43,8.82,1.2,20.63,5.2c10.89,3.7,4.27-24.72,13-21.58C102.75,91.78,103.75,104.67,92.71,115.72Z"/><path class="cls-3" d="M104.93,137.14c-3.21,10-28.45,15.63-18.43,23.44s1,19.23,1,19.23H65.56c-7.16-20.72,13.91-22.65,13.13-32.25-.8-9.82-2.4-15.42,14-31.84,11-11,10-23.94,8.2-31.2a9.92,9.92,0,0,1,2.61,1.55c12.62,9.82-3,29.24-6.21,33.85S108.13,127.13,104.93,137.14Z"/><path class="cls-3" d="M63.31,151.15c-1.9,1.78-1.75,5.9-1.63,7.37a19.9,19.9,0,0,0-1.83,4.28,18.91,18.91,0,0,0-2.38-3.89,18.9,18.9,0,0,1-2.12-3.35,12.63,12.63,0,0,0-1.28-3.71,14.92,14.92,0,0,1,.44-7.73,10.18,10.18,0,0,0,4.18-3.52c1.48-2.07-2.4-5.5-4.24-3.33-1.69,2-.8,6.34-.63,7.07a15.71,15.71,0,0,0-.56,6.26c-.15-.21-.31-.42-.49-.64-1.8-2.21-6.65,1-4.84,3.6,1.5,2.2,5.76,2.66,7.13,2.75a19.28,19.28,0,0,0,1.95,3,21.74,21.74,0,0,1,4.33,12,9.49,9.49,0,0,0-2.47-1.38,11.68,11.68,0,0,0-4.5-4.64c-2.44-1.46-5.92,3.18-3.32,5,2.15,1.54,6.24.55,7.6.16,1,.41,2.35,1,2.7,1.74l0,.05a29.81,29.81,0,0,1-.63,7.65.3.3,0,0,0,.22.36h.07a.3.3,0,0,0,.29-.22c0-.1,2-8.27-1-16v0c-.3-.84.8-3.31,1.78-5.08a11.69,11.69,0,0,0,5.46-3.53C69.52,153.27,65.64,149,63.31,151.15Z"/><path class="cls-2" d="M71.41,179.66c.23.35,37.18,0,37.18,0s6.42-7.82-4.39-13.52c-6.12-3.23,4.55-9.17,1.22-15.47s-10.17,1.78-13-3.8-8.94-18.18-11.44-10.34,9.63,12.72,1.67,18.54S64.78,163.86,74.53,166,66.18,171.84,71.41,179.66Z"/><path class="cls-3" d="M119.12,157.89c-2.65.2-5.18,3.57-6,4.81a19.47,19.47,0,0,0-4.2,2.22,19.81,19.81,0,0,0,.61-4.62,18.15,18.15,0,0,1,.2-2.53,11.57,11.57,0,0,0,6.11.55c2.87-.45,2.56-6.37-.7-6.13-1.74.13-3.42,1.62-4.61,3a11,11,0,0,0,.83-2.67,15.46,15.46,0,0,1,5.32-5.85,10.44,10.44,0,0,0,5.59-.1c2.51-.7,1.63-5.92-1.23-5.37-2.63.49-4.71,4.52-5,5.2A16,16,0,0,0,111.5,151c0-.26,0-.53,0-.82,0-2.91-5.9-3.51-6.16-.25-.22,2.71,2.87,5.81,3.9,6.76a20.12,20.12,0,0,0-.37,3.61c0,.34,0,.68,0,1a12,12,0,0,0-.74-3.14c-1-2.73-6.75-1.28-5.88,1.87.7,2.53,4.39,4.34,5.82,5,0,0,.22,1.94-3.41,7.59a9.79,9.79,0,0,0-1.08-2.68,12,12,0,0,0-.59-6.57c-1-2.74-6.74-1.28-5.88,1.87.72,2.6,4.61,4.44,5.94,5,.53,1,1.2,2.33,1,3.12v.06a30.52,30.52,0,0,1-5.42,5.67.31.31,0,0,0-.06.43s0,0,.05,0a.31.31,0,0,0,.38,0c.08-.06,6.91-5.27,9.51-13.32,0,0,0,0,0,0,.31-.85,2.77-2.1,4.68-2.89a11.88,11.88,0,0,0,6.61.72C122.69,163.57,122.38,157.65,119.12,157.89Z"/><path class="cls-4" d="M125.26,8.3,24.62,0c-1.87-.16-4.05,1.8-4.88,4.36L7,43.67c-.83,2.56-.06,5,1.72,5.38l96.14,22.14c3,.69,6.31-1.47,7.4-4.82L129,14.85C130.05,11.49,128.37,8.56,125.26,8.3Z"/><path class="cls-5" d="M24.46,8.43c6.88.42,13.76.34,21.77-2.17a54.41,54.41,0,0,0,5.56-2.14L23.66,1.66c-1.16-.1-2.52,1.11-3,2.71L19.41,8.09C21.08,8.21,22.76,8.33,24.46,8.43Z"/><path class="cls-6" d="M104.31,44.67c-16,8.83-33.23,11.54-47.59,13l-2.06.19,49.82,11.25c2.65.6,5.61-1.33,6.58-4.32l11.09-34.17A71.23,71.23,0,0,1,104.31,44.67Z"/><path class="cls-7" d="M54.25,47.15c.16,0,.82,2.94,1.34,3.27s.91.63.83.85-.45.2-.42.53.21,1.11.21,1.11S55,57.27,53.93,57.53s-1.19.17-1.3.94,2.81,3.76,2.81,3.76a9.18,9.18,0,0,1-6.85,1c-4.09-.92,0-5.44.23-7.31S52.5,46.94,54.25,47.15Z"/><path class="cls-8" d="M51.82,50.15s1.71,3.41,2.5,3.7,1.86-1.33,1.86-1.33S58,57,55.44,57.41l-2.57.45s1.45-2,.72-2.86-2.12-.38-2.12-.38.12,4.91-2.65,3.11-8.46-4.26-5.1-7.83,4.19-1.69,6.29-4.56.26-5.48,3.52-3.73S58.57,49.18,51.82,50.15Z"/><path class="cls-9" d="M56.28,54.67a.82.82,0,0,1-.67-.11.15.15,0,0,1,0-.2.16.16,0,0,1,.21,0,.51.51,0,0,0,.42.08c.11,0,.18-.17.22-.38a.16.16,0,0,1,.18-.12.16.16,0,0,1,.11.18.73.73,0,0,1-.4.59Z"/><path class="cls-8" d="M53.82,50.31A5.72,5.72,0,0,0,55.06,50c.09-.13-.3-.31-.78-.11S53.69,50.32,53.82,50.31Z"/><path class="cls-8" d="M54.94,50.65a.31.31,0,0,1-.18.4.31.31,0,0,1-.37-.24.33.33,0,0,1,.18-.41h.13a.15.15,0,0,0-.06.17.15.15,0,0,0,.17.11.13.13,0,0,0,.09-.12Z"/><path class="cls-10" d="M26.25,177.89c-.18.39-1.15,5.8-1.15,5.8s.72,3.33.49,3.6-2.5-3.13-2.41-4.45,0-5.26,0-5.26Z"/><path class="cls-11" d="M22.41,183.84s.5-1.61.81-1.29,1.92,4.14,2.43,4.55.92.05,1,.48-1.12.94-1.54.57S22,185.23,22.41,183.84Z"/><path class="cls-11" d="M23,181.83s2.21-.3,2.56,0-.26,1.9-.26,1.9,1,3.76.55,3.8-2.43-3.09-2.66-3.93-.84.59-.84.54S23,181.83,23,181.83Z"/><path class="cls-12" d="M25.33,188.14l-.08.1a1.51,1.51,0,0,1-1.18-.18c-.63-.37-2.08-3.26-1.65-3.86s1,.73,1,.73A29.45,29.45,0,0,1,25.33,188.14Z"/><path class="cls-13" d="M22.8,180.41a3.35,3.35,0,0,0,3.76-.28S39.1,148.55,41.61,126c.64-5.73.63-10.86-.4-14.75-1.09-4.12-2.7-6.51-4.56-7.72-3.09-2-6.86-.78-10,1.18h0a32,32,0,0,0-5.2,4.08c-1,.91-1.54,1.55-1.54,1.55s-.13.71-.27,1.81c-.18,1.39-.43,3.53-.69,6.23C17.52,132.64,15.86,162.42,22.8,180.41Z"/><path class="cls-10" d="M57.44,182c-.07.43.51,5.89.51,5.89s1.62,3,1.48,3.31-3.28-2.3-3.56-3.59-1.49-5-1.49-5Z"/><path class="cls-11" d="M55.42,188.75s0-1.69.41-1.47,3,3.44,3.6,3.7.91-.21,1,.19-.81,1.22-1.32,1S55.42,190.19,55.42,188.75Z"/><path class="cls-11" d="M55.42,186.54c.09,0,2.27-.59,2.56-.07a1.86,1.86,0,0,1,.15,1.16s1.53,3.14,1.73,3.58-.46.76-.53.57a18.45,18.45,0,0,0-3.46-3.13C55.17,188.43,55.42,186.54,55.42,186.54Z"/><path class="cls-12" d="M59.42,192.06l-.05.13a1.49,1.49,0,0,1-1.18.15c-.71-.18-2.91-2.55-2.67-3.24s1.17.42,1.17.42A30.28,30.28,0,0,1,59.42,192.06Z"/><path class="cls-14" d="M56.29,114C65,129.33,59,183.65,58,184.45a4.25,4.25,0,0,1-3.37.52s-25.77-57.43-22.83-71.16S53.26,108.69,56.29,114Z"/><path class="cls-15" d="M18.69,122.14c.77,4,4.93,7.4,8.8,8.28a9.2,9.2,0,0,0,5.69-.55,10.07,10.07,0,0,1,4.8-1.19,11.76,11.76,0,0,1,3.42,1.08,8.88,8.88,0,0,0,2,.61,8,8,0,0,0,3-.15,6.67,6.67,0,0,0,2.53-1.41c1.43-1.12,2.88-2.15,4.78-1.89a5.07,5.07,0,0,1,3.28,2c1.66,2.11,2.13,5,2.59,7.56.56,3.17,1,6.38,1.38,9.58,0-13-1.08-25.76-4.64-32C54,110,43,104.2,36.44,107.3a7.47,7.47,0,0,0-2.84,2.29,9.16,9.16,0,0,0-7.2-1.12h0a9.76,9.76,0,0,0-5.21,4.08,18.54,18.54,0,0,0-1.48,2.57c-.11.24-.22.51-.33.8C19.2,117.3,19,119.44,18.69,122.14Z"/><path class="cls-10" d="M34.77,60.83c-4.87-3.33-13.52-5.68-13.52-5.68l-9-23.54-1.2,1.79a76.28,76.28,0,0,0,4.08,26.53c4.69,13.55,17.91,10,17.91,10S38,63,34.77,60.83Z"/><path class="cls-2" d="M48.56,60.65C47.47,58.1,27,56.59,27,56.59c-1.9,2.73,1,5.24-.29,8.17-.53,1.17-1.56,2.16-1.7,3.49a15.34,15.34,0,0,0,.06,2.14,57.55,57.55,0,0,0,15,4.58S50.08,64.22,48.56,60.65Z"/><path class="cls-16" d="M54.09,60.69c-5.58,2-2.85,1-6.91-1.47-1.08-.67-6.67-1.31-7.47-.76-19,13.12-21.29,54.09-21.29,54.09s11.29,16.85,39.72,3.06C58.14,115.61,66.63,67.42,54.09,60.69Z"/><path class="cls-15" d="M59.59,86c-.21,2.13.49,4.19.49,6.32s-.95,3.9-1.75,5.77a11.36,11.36,0,0,0-.87,2.78,18.29,18.29,0,0,0-.13,2.77,13.81,13.81,0,0,1-.51,5.16,8.08,8.08,0,0,1-3.26,3.61,11.44,11.44,0,0,0-3.46,3,14.41,14.41,0,0,0-1.31,3.91,60.2,60.2,0,0,0,9.35-3.67s3.08-17.46,2.78-32.84A5.56,5.56,0,0,0,59.59,86Z"/><path class="cls-17" d="M11.32,29.4s1,.44,1.09.73a1.7,1.7,0,0,1-.2,1.53A12.73,12.73,0,0,0,11.32,29.4Z"/><path class="cls-10" d="M12.25,30.58a3.52,3.52,0,0,1,.18-.4,1.67,1.67,0,0,1-.22,1.48,4.79,4.79,0,0,0-.23-.75A1,1,0,0,0,12.25,30.58Z"/><path class="cls-10" d="M9.71,32.15a5.22,5.22,0,0,1-.33-.54h0l-.08-.12h0l-.11-.19h0s-.49-.77-.33-1a.31.31,0,0,1,.35-.16.4.4,0,0,1,.17-.4.35.35,0,0,1,.38,0,.37.37,0,0,1,.19-.39.49.49,0,0,1,.49,0s-.06-.37.39-.35.71.64.72.67l.17.31s0,0,0,.08c.53,2.15,2,4.57,1.88,4.94,0,0-1.93,1.59-2.3,1.35a20.62,20.62,0,0,1-.51-3.47A1.59,1.59,0,0,1,9.71,32.15Z"/><path class="cls-18" d="M9.38,31.61h0l-.08-.12h0l-.11-.19h0s-.49-.77-.33-1a.31.31,0,0,1,.35-.16.4.4,0,0,1,.17-.4.35.35,0,0,1,.38,0,.37.37,0,0,1,.19-.39.49.49,0,0,1,.49,0s-.06-.37.39-.35a.62.62,0,0,1,.41.2.73.73,0,0,0-.5.11.28.28,0,0,0-.1.09s0,.08-.07.13-.16.1-.26.13a.76.76,0,0,0-.34.16,1.07,1.07,0,0,0-.16.25.6.6,0,0,1-.22.2,1,1,0,0,0-.25.15.51.51,0,0,0-.12.47,1.93,1.93,0,0,0,.11.34l.18.42a7.56,7.56,0,0,0,.34.7l-.14-.16A5.22,5.22,0,0,1,9.38,31.61Z"/><path class="cls-14" d="M54.28,59a6.74,6.74,0,0,1-4.26.46c-2.89-.39-2.7-1.26-2.7-1.26s-1.31.39-1.92,2.71,5.4,2.54,7.73.77,2.4-1.3,2.4-1.3Z"/><path class="cls-17" d="M115.1,57.15s-1.07-.12-1.3.09a1.69,1.69,0,0,0-.6,1.42A12.89,12.89,0,0,1,115.1,57.15Z"/><path class="cls-10" d="M113.71,57.7c0-.15.05-.29.05-.43a1.68,1.68,0,0,0-.56,1.39,6,6,0,0,1,.57-.54A1.19,1.19,0,0,1,113.71,57.7Z"/><path class="cls-10" d="M115.12,60.33a4.24,4.24,0,0,0,.56-.3h0l.12-.06h0a1.18,1.18,0,0,0,.19-.1h0s.81-.42.78-.7a.31.31,0,0,0-.22-.31.4.4,0,0,0,0-.43.33.33,0,0,0-.31-.21.38.38,0,0,0,0-.44.49.49,0,0,0-.41-.26s.23-.29-.17-.5-.93.2-1,.22l-.29.18-.08.06c-1.53,1.59-5,2.73-5,3.12,0,0,.43,1.76.88,1.74s3.57-1.95,3.57-1.95A1.56,1.56,0,0,0,115.12,60.33Z"/><path class="cls-18" d="M115.68,60h0l.12-.06h0a1.18,1.18,0,0,0,.19-.1h0s.81-.42.78-.7a.31.31,0,0,0-.22-.31.4.4,0,0,0,0-.43.33.33,0,0,0-.31-.21.38.38,0,0,0,0-.44.49.49,0,0,0-.41-.26s.23-.29-.17-.5a.67.67,0,0,0-.46,0,.81.81,0,0,1,.39.34.5.5,0,0,1,0,.13s0,.1,0,.15.09.17.16.24a.72.72,0,0,1,.21.31,1.53,1.53,0,0,1,0,.3.51.51,0,0,0,.08.29.62.62,0,0,1,.14.25.51.51,0,0,1-.13.47,3,3,0,0,1-.27.23l-.36.27a5.79,5.79,0,0,1-.65.45l.2-.08A4.24,4.24,0,0,0,115.68,60Z"/><path class="cls-10" d="M113.2,58.4,86.65,65.18s-13,.77-22.32-.29l.81,13c6-1.45,15.51-2.41,21.3-3,10.27-1.06,26.76-12.5,27.48-14.52A10.52,10.52,0,0,0,113.2,58.4Z"/><path class="cls-2" d="M71.08,64c-6.64-.63-12.57-1.58-15.45-2.68-4.79-1.81,5.23,19.13,5.23,19.13a67.28,67.28,0,0,1,9.65-2.74C70.39,73.17,71.07,68.6,71.08,64Z"/><path class="cls-2" d="M122.09,77.35H119.9V75.16a.44.44,0,0,0-.44-.43.43.43,0,0,0-.43.43v2.19h-2.19a.44.44,0,0,0-.31.74.44.44,0,0,0,.31.13H119v2.19a.44.44,0,0,0,.43.43.44.44,0,0,0,.44-.43V78.22h2.19a.44.44,0,0,0,.43-.44A.43.43,0,0,0,122.09,77.35Z"/><path class="cls-2" d="M3.47,84.32a3.47,3.47,0,1,1,3.47-3.47A3.48,3.48,0,0,1,3.47,84.32Zm0-5.61A2.14,2.14,0,1,0,5.6,80.85,2.13,2.13,0,0,0,3.47,78.71Z"/><path class="cls-9" d="M35.58,27.61a.38.38,0,0,0-.3.06,1,1,0,0,0-.23.27,3.12,3.12,0,0,0-.29.58,6.55,6.55,0,0,0-.3,1,11.26,11.26,0,0,0-.27,1.42c-.17,1.15-.28,2.2-.33,3.17l0,.58-.58-.08-1.59-.23-.49-.07,0-.5c.09-1.06.2-2.06.34-3A10.73,10.73,0,0,1,33,26.24a3.17,3.17,0,0,1,2.24-1.47,8.17,8.17,0,0,1,1.29-1.66,4.28,4.28,0,0,1,1.45-.95A3.12,3.12,0,0,1,39.57,22a3.31,3.31,0,0,1,2.51,1.61,4.14,4.14,0,0,1,.55,1.4,4.73,4.73,0,0,1,0,1.55,4,4,0,0,1-1,2.28,2.75,2.75,0,0,1-2.55.73,4.59,4.59,0,0,1-2.32-1.14,8.58,8.58,0,0,0-.81-.61A.86.86,0,0,0,35.58,27.61Zm3.94-.72a.41.41,0,0,0,.36-.08.83.83,0,0,0,.18-.54,1.23,1.23,0,0,0,0-.19,1.33,1.33,0,0,0,0-.2,1.23,1.23,0,0,0,0-.2l0-.22a1.08,1.08,0,0,0-.29-.52,1.05,1.05,0,0,0-1.27-.07,2.65,2.65,0,0,0-.75.86,6.38,6.38,0,0,0,1,.82A2,2,0,0,0,39.52,26.89Z"/><path class="cls-9" d="M48.17,29.31a1.47,1.47,0,0,1,0,.16c0,.09,0,.16,0,.23a2.07,2.07,0,0,1-.06.24.73.73,0,0,1-.09.25,2.08,2.08,0,0,1-.15.2.55.55,0,0,1-.24.13.8.8,0,0,1-.31,0l-.36-.05q-3.62-.51-3-4.88L45,18l.08-.53.53.08,1.53.22.53.08-.07.53-1.09,7.52a2.34,2.34,0,0,0,.09,1.37,1.14,1.14,0,0,0,.88.51l.16,0a.72.72,0,0,1,.29.1.42.42,0,0,1,.18.17,1.36,1.36,0,0,1,.09.23.83.83,0,0,1,0,.24,1.44,1.44,0,0,1,0,.24,1.91,1.91,0,0,1,0,.2.59.59,0,0,0,0,.13Z"/><path class="cls-9" d="M47.83,30.6l-.68-.09a1,1,0,0,1-.58-.29,1.35,1.35,0,0,1-.27-1.17l0-.17a1.22,1.22,0,0,1,.54-.93,1,1,0,0,1,.68-.13l.67.1a2.67,2.67,0,0,0,1.24,0c.36-.15.58-.59.69-1.32,0-.1,0-.21,0-.33s0-.23,0-.35,0-.24,0-.37a2.41,2.41,0,0,0,0-.38c0-.13,0-.27,0-.4s0-.28,0-.42l0-.53.53-.06,1.49-.15.51-.06.08.5a9.76,9.76,0,0,1,0,2.9,4.18,4.18,0,0,1-2,3.32A4.66,4.66,0,0,1,47.83,30.6Zm1.57-9.93,1.92-1.44,1.45,1.94-1.93,1.44Z"/><path class="cls-9" d="M65,33.08a14.53,14.53,0,0,1-3-.73,7,7,0,0,1-2.14-1.21,4,4,0,0,1-1.22-1.72,4.47,4.47,0,0,1-.18-2.21,6,6,0,0,1,.89-2.4l.27-.43.44.24,1.31.72.49.26-.28.48a3.48,3.48,0,0,0-.44,1.28,2,2,0,0,0,.1,1,2.14,2.14,0,0,0,.66.85,4.46,4.46,0,0,0,1.35.68,11.71,11.71,0,0,0,2.11.47,18,18,0,0,0,3.58.23,3.61,3.61,0,0,0,1.86-.44.71.71,0,0,0,.14-.23,1.86,1.86,0,0,0,.12-.47,1.1,1.1,0,0,0,0-.18.89.89,0,0,0,0-.15s0-.1,0-.14l0-.72,0-.51h.52l1.48,0h.56l0,.57-.13,1.92a1.21,1.21,0,0,0,0,.38,1.5,1.5,0,0,0,.06.33,1.43,1.43,0,0,0,.13.28,1,1,0,0,0,.78.4l.11,0a.82.82,0,0,1,.3.09.47.47,0,0,1,.18.19,2,2,0,0,1,.1.21.67.67,0,0,1,0,.25,1.48,1.48,0,0,1,0,.23c0,.06,0,.12,0,.21s0,.12,0,.13l0,.17v0a.68.68,0,0,1,0,.12.88.88,0,0,1,0,.17c0,.06,0,.13-.05.21s0,.15-.08.21a.72.72,0,0,1-.11.19.58.58,0,0,1-.15.16.4.4,0,0,1-.21.09.57.57,0,0,1-.26,0h-.12a3.31,3.31,0,0,1-2.59-1.69,5.64,5.64,0,0,1-1.2.43,9.29,9.29,0,0,1-1.5.19c-.54,0-1.13,0-1.76,0s-1.32-.11-2.07-.22Zm-1.25-9,1.85-1.39,1.23,1.65,1.65-1.23,1.39,1.86L68,26.32l-1.23-1.64-1.64,1.23Z"/><path class="cls-9" d="M74.16,34.4a.92.92,0,0,1-.57-.29,1.15,1.15,0,0,1-.27-.54,1.84,1.84,0,0,1,0-.62l0-.17a1.18,1.18,0,0,1,.53-.93.92.92,0,0,1,.68-.13l2.67.38a.83.83,0,0,1,.29.1.47.47,0,0,1,.19.18,1.28,1.28,0,0,1,.09.22.64.64,0,0,1,0,.25,2,2,0,0,0,0,.23c0,.05,0,.12,0,.2s0,.13,0,.14l0,.16a.89.89,0,0,1,0,.11c-.07.81-.36,1.17-.88,1.1Z"/><path class="cls-9" d="M76.69,34.77a.91.91,0,0,1-.57-.3,1.07,1.07,0,0,1-.27-.54,1.84,1.84,0,0,1,0-.62l0-.17a1.23,1.23,0,0,1,.53-.93,1.07,1.07,0,0,1,.69-.13l2.67.39a.82.82,0,0,1,.29.09.41.41,0,0,1,.18.19.72.72,0,0,1,.1.22.83.83,0,0,1,0,.24c0,.1,0,.17,0,.23a.88.88,0,0,1,0,.21c0,.08,0,.13,0,.13l0,.17a.46.46,0,0,1,0,.1c-.07.81-.36,1.18-.88,1.1Z"/><path class="cls-9" d="M79.22,35.13a.87.87,0,0,1-.57-.29,1.07,1.07,0,0,1-.28-.55,2.07,2.07,0,0,1,0-.61l0-.17a1.22,1.22,0,0,1,.53-.94,1,1,0,0,1,.69-.12l2.66.38a.88.88,0,0,1,.3.1.52.52,0,0,1,.18.18l.1.22a.65.65,0,0,1,0,.25c0,.09,0,.17,0,.23s0,.12,0,.2a.64.64,0,0,0,0,.14l0,.16s0,.06,0,.11c-.07.81-.37,1.17-.88,1.1Z"/><path class="cls-9" d="M81.74,35.5a.94.94,0,0,1-.57-.3,1.15,1.15,0,0,1-.27-.54,1.84,1.84,0,0,1,0-.62l0-.17a1.18,1.18,0,0,1,.53-.93,1,1,0,0,1,.68-.13l2.67.39a.82.82,0,0,1,.29.09.44.44,0,0,1,.19.19,1.2,1.2,0,0,1,.09.21.51.51,0,0,1,0,.25c0,.1,0,.17,0,.23s0,.13,0,.21l0,.13,0,.17a.84.84,0,0,1,0,.1c-.06.81-.36,1.18-.88,1.1Z"/><path class="cls-9" d="M84.27,35.86a.92.92,0,0,1-.57-.29,1.1,1.1,0,0,1-.27-.55,1.84,1.84,0,0,1,0-.62l0-.16A1.25,1.25,0,0,1,84,33.3a1,1,0,0,1,.69-.12l2.67.38a.83.83,0,0,1,.29.1.55.55,0,0,1,.19.18,1.28,1.28,0,0,1,.09.22.9.9,0,0,1,0,.25c0,.09,0,.17,0,.22a.88.88,0,0,1,0,.21c0,.08,0,.13,0,.13l0,.17a.75.75,0,0,0,0,.11c-.07.81-.36,1.17-.88,1.1Z"/><path class="cls-9" d="M86.8,36.23a.89.89,0,0,1-.57-.3,1.08,1.08,0,0,1-.28-.54,2.14,2.14,0,0,1,0-.62l0-.17a1.18,1.18,0,0,1,.53-.93,1,1,0,0,1,.69-.13l2.66.39a.88.88,0,0,1,.3.09.47.47,0,0,1,.18.19,2,2,0,0,1,.1.21.67.67,0,0,1,0,.25c0,.1,0,.17,0,.23a2.11,2.11,0,0,1,0,.21.53.53,0,0,0,0,.13l0,.17a.77.77,0,0,0,0,.1c-.07.81-.37,1.18-.88,1.1Z"/><path class="cls-9" d="M96.25,36.26l-.06.45a1.83,1.83,0,0,1-.08.28.82.82,0,0,1-.15.28.67.67,0,0,1-.25.16.7.7,0,0,1-.36,0h-.09A3.18,3.18,0,0,1,93,36.17a3.65,3.65,0,0,1-2.71.55l-.92-.13a1,1,0,0,1-.58-.28,1.38,1.38,0,0,1-.27-1.18l0-.16A1.22,1.22,0,0,1,89,34a.88.88,0,0,1,.32-.12,1.38,1.38,0,0,1,.35,0l.88.13a2.11,2.11,0,0,0,.75,0,.78.78,0,0,0,.43-.18,1,1,0,0,0,.22-.37,3.74,3.74,0,0,0,.14-.63,1.1,1.1,0,0,0,0-.18.88.88,0,0,0,0-.16c0-.05,0-.11,0-.16a.88.88,0,0,0,0-.16c0-.05,0-.1,0-.15l.06-.72,0-.51h.51l1.47,0h.57l0,.56-.15,2.06a1.27,1.27,0,0,0,.18.9,1.22,1.22,0,0,0,.83.37h.07a.66.66,0,0,1,.33.13.55.55,0,0,1,.19.22.83.83,0,0,1,.07.3,1.36,1.36,0,0,1,0,.29c0,.07,0,.16,0,.27l0,.18Zm-6.68,3.22,1.92-1.43L92.94,40,91,41.42Z"/><path class="cls-9" d="M95.89,37.54l-.67-.1a1,1,0,0,1-.58-.28A1.34,1.34,0,0,1,94.36,36l0-.16a1.22,1.22,0,0,1,.53-.94,1,1,0,0,1,.69-.12l.67.09a7.68,7.68,0,0,0,1.07.09,2,2,0,0,0,.61-.06q.53-.23.69-1.32a9.88,9.88,0,0,0,0-2.25l0-.53.53-.06,1.49-.15.5-.06.09.5a9.76,9.76,0,0,1,0,2.9,4.2,4.2,0,0,1-2,3.32A5.57,5.57,0,0,1,95.89,37.54Zm.27-9.8L98,26.38,99.2,28l1.65-1.23,1.36,1.83L100.4,30l-1.23-1.64-1.65,1.23ZM98,25.49l1.75-1.31,1.31,1.76-1.74,1.31Z"/></g></g></g></svg>