<svg xmlns="http://www.w3.org/2000/svg" xmlns:xlink="http://www.w3.org/1999/xlink" width="81.159" height="88.46" viewBox="0 0 81.159 88.46"><defs><linearGradient id="a" x1="0.5" x2="0.5" y2="1" gradientUnits="objectBoundingBox"><stop offset="0" stop-color="#f6f624"/><stop offset="1" stop-color="#e85110"/></linearGradient></defs><g transform="translate(-173.421 -177.54)"><g transform="translate(173.421 177.54)"><g transform="translate(0)"><path d="M241.032,0h4.433V10.19h-4.433Z" transform="translate(-208.194)" fill="#ff3953"/><path d="M0,0H10.19V4.433H0Z" transform="translate(47.665 12.959) rotate(-59.95)" fill="#ff3953"/><path d="M0,0H10.19V4.433H0Z" transform="matrix(0.867, -0.499, 0.499, 0.867, 59.086, 22.786)" fill="#ff3953"/><path d="M0,0H4.433V10.19H0Z" transform="translate(13.528 6.364) rotate(-30.05)" fill="#ff3953"/><path d="M0,0H4.433V10.19H0Z" transform="matrix(0.499, -0.867, 0.867, 0.499, 0, 21.551)" fill="#ff3953"/><path d="M144.826,133.456a18.61,18.61,0,0,0-36.741,0l-4.094,25.234H148.92Z" transform="translate(-91.431 -100.387)" fill="#ff3953"/><path d="M57.155,424.348h58.771V437.3H57.155Z" transform="translate(-51.49 -361.638)" fill="#e4e4e4"/></g></g><text transform="translate(209 232)" fill="#13bfd2" font-size="34" font-family="SegoeUIBlack, Segoe UI"><tspan x="-6.226" y="0">!</tspan></text><g transform="translate(188.81 188.351)"><g transform="translate(25.769 37.649)" fill="#e4e4e4" stroke="#18cccf" stroke-width="1"><circle cx="20" cy="20" r="20" stroke="none"/><circle cx="20" cy="20" r="19.5" fill="none"/></g><g transform="translate(45.333 49.124)"><path d="M27.739,120h-8.8a2.935,2.935,0,0,0,0,5.87c1.838,0,4.4-1.117,4.4-2.935a2.127,2.127,0,0,0-.634-1.467h1.267a2.127,2.127,0,0,0-.634,1.467c0,1.818,2.564,2.935,4.4,2.935a2.935,2.935,0,0,0,0-5.87Z" transform="translate(-14.533 -109.728)" fill="#002020"/><path d="M16.063,81.467c-.048-.376-.122-.886-.227-1.467H1.774c-.105.582-.179,1.091-.227,1.467H0v1.467H17.609V81.467Z" transform="translate(0 -73.397)" fill="#002020"/><path d="M36.009,12.577C35.181,9.54,33.956,8,32.367,8a3.444,3.444,0,0,0-2.935,1.843A3.444,3.444,0,0,0,26.5,8c-1.589,0-2.815,1.54-3.643,4.577-.051.187-.1.375-.144.559H36.153C36.109,12.951,36.06,12.764,36.009,12.577Z" transform="translate(-20.627 -8)" fill="#002020"/></g></g><g transform="translate(216.429 232.718)"><path d="M321.015,197.07a3.3,3.3,0,0,0,1.083,2.9c-.066-4.459,2.409-7.237,5.908-9.506-.163.663-.337,1.213-.43,1.777a5.411,5.411,0,0,0,1.113,4.584c1.594,1.917,1.643,2.1,1.916,4.544l.172.024a20.983,20.983,0,0,0,.306-2.335,25.114,25.114,0,0,0-.188-2.555c2.013,2.776,3.642,5.575,2.951,9.076-.534,2.7-2.362,4.435-4.821,5.854.169-.409.273-.65.369-.893a5,5,0,0,0-.759-5.57,4.436,4.436,0,0,1-1.166-4.226c-2.192.56-3.573,3.987-3.056,7.421-.657-.21-.719-.28-1.575-1.807-1.307,1.575-.828,3.261-.371,4.971a7.867,7.867,0,0,1-4.4-7.769A13.57,13.57,0,0,1,321.015,197.07Z" transform="translate(-318.015 -190.464)" fill="url(#a)"/></g></g></svg>