<svg xmlns="http://www.w3.org/2000/svg" width="78.579" height="89.46" viewBox="0 0 78.579 89.46"><g transform="translate(-167 -636.54)"><g transform="translate(167 636.54)"><g transform="translate(0)"><path d="M241.032,0h4.433V10.19h-4.433Z" transform="translate(-208.194)" fill="#ff3953"/><path d="M0,0H10.19V4.433H0Z" transform="translate(47.665 12.959) rotate(-59.95)" fill="#ff3953"/><path d="M0,0H10.19V4.433H0Z" transform="matrix(0.867, -0.499, 0.499, 0.867, 59.086, 22.786)" fill="#ff3953"/><path d="M0,0H4.433V10.19H0Z" transform="translate(13.528 6.364) rotate(-30.05)" fill="#ff3953"/><path d="M0,0H4.433V10.19H0Z" transform="matrix(0.499, -0.867, 0.867, 0.499, 0, 21.551)" fill="#ff3953"/><path d="M144.826,133.456a18.61,18.61,0,0,0-36.741,0l-4.094,25.234H148.92Z" transform="translate(-91.431 -100.387)" fill="#ff3953"/><path d="M57.155,424.348h58.771V437.3H57.155Z" transform="translate(-51.49 -361.638)" fill="#e4e4e4"/><g transform="translate(12.81 11.81)"><circle cx="20" cy="20" r="20" transform="translate(25.769 37.649)" fill="#e4e4e4"/><path d="M20,1a19.005,19.005,0,0,0-7.4,36.507A19.005,19.005,0,0,0,27.4,2.493,18.88,18.88,0,0,0,20,1m0-1A20,20,0,1,1,0,20,20,20,0,0,1,20,0Z" transform="translate(25.769 37.649)" fill="#18cccf"/><g transform="translate(32.287 44.915)"><path d="M34.437,120H20.609a4.609,4.609,0,0,0,0,9.219c2.886,0,6.914-1.754,6.914-4.609a3.341,3.341,0,0,0-1-2.3h1.99a3.341,3.341,0,0,0-1,2.3c0,2.856,4.027,4.609,6.914,4.609a4.609,4.609,0,1,0,0-9.219Z" transform="translate(-13.695 -103.868)" fill="#002020"/><path d="M25.227,82.3c-.076-.591-.191-1.391-.357-2.3H2.786c-.166.913-.281,1.714-.357,2.3H0v2.3H27.656V82.3Z" transform="translate(0 -69.629)" fill="#002020"/><path d="M43.6,15.188C42.3,10.418,40.371,8,37.876,8a5.409,5.409,0,0,0-4.609,2.9A5.409,5.409,0,0,0,28.657,8c-2.5,0-4.42,2.418-5.721,7.188-.08.294-.156.588-.226.879H43.823C43.753,15.775,43.677,15.481,43.6,15.188Z" transform="translate(-19.439 -8)" fill="#002020"/></g></g></g></g><text transform="translate(203 689)" fill="#13bfd2" font-size="34" font-family="SegoeUIBlack, Segoe UI"><tspan x="-6.226" y="0">!</tspan></text></g></svg>