<?xml version="1.0" encoding="utf-8"?>
<!-- Generator: Adobe Illustrator 25.2.0, SVG Export Plug-In . SVG Version: 6.00 Build 0)  -->
<svg version="1.1" id="Layer_1" xmlns="http://www.w3.org/2000/svg" xmlns:xlink="http://www.w3.org/1999/xlink" x="0px" y="0px"
	 viewBox="0 0 128 194.8" style="enable-background:new 0 0 128 194.8;" xml:space="preserve">
<style type="text/css">
	.st0{fill:none;stroke:#006090;stroke-width:13.7382;stroke-miterlimit:10;}
	.st1{fill:#FFFFFF;stroke:#006090;stroke-width:1.8791;stroke-miterlimit:10;}
	.st2{fill:#006090;}
</style>
<g>
	<path class="st0" d="M60.6,30.7l-24.9,79.1C17.9,99.6,7,80.6,7,60.2s10.9-39.4,28.7-49.6"/>
	<circle class="st1" cx="60.9" cy="30.3" r="6"/>
	<circle class="st1" cx="36.1" cy="10.4" r="6"/>
	<path class="st0" d="M67.4,89.6l24.9-79.1C110.1,20.8,121,39.7,121,60.2s-10.9,39.4-28.7,49.6"/>
	<line class="st0" x1="51.3" y1="60.2" x2="76.2" y2="60.2"/>
	<circle class="st1" cx="67.8" cy="88.5" r="6"/>
	<circle class="st1" cx="92.5" cy="110" r="6"/>
</g>
<g>
	<g>
		<path class="st2" d="M2.9,126.3h6.6V163H2.9V126.3z"/>
		<path class="st2" d="M13.9,155.2c1.1,0.2,2.3,0.4,3.6,0.6c1.3,0.2,2.4,0.3,3.3,0.3c3.3,0,5.6-0.4,6.9-1.1c1.3-0.7,1.9-1.6,1.9-2.7
			c0-1.4-1-3.1-3.1-5.2c-2-2.1-4.8-4.2-8.3-6.4l3.8-5.7c4.4,2.6,7.9,5.4,10.5,8.2c2.6,2.8,3.9,5.9,3.9,9c0,3.6-1.3,6.3-4,8.1
			c-2.7,1.8-6.4,2.7-11.3,2.7c-1.3,0-2.6-0.1-3.8-0.2c-1.2-0.2-2.3-0.4-3.4-0.6V155.2z"/>
		<path class="st2" d="M49.2,142c3.1,0,5.5,1.2,7.2,3.7c1.7,2.4,2.7,5.9,3.2,10.4h2.1v6.9h-2.6c-1.8,7.8-7.6,12.6-17.4,14.4
			l-2.4-6.1c3.5-0.6,6.4-1.7,8.6-3.1c2.2-1.4,3.7-3.2,4.6-5.2h-2.4c-3.4,0-6-0.7-7.9-2.2c-1.9-1.5-2.8-3.7-2.8-6.7
			c0-1.4,0.2-2.8,0.6-4.2s1-2.7,1.8-3.9c0.8-1.2,1.8-2.2,3-2.9C46.1,142.4,47.5,142,49.2,142z M53.1,156.1c-0.3-2.8-0.8-4.7-1.5-5.8
			s-1.6-1.5-2.6-1.5c-0.7,0-1.3,0.3-1.8,0.8c-0.5,0.6-0.8,1.3-1,2.1c-0.2,0.8-0.3,1.6-0.3,2.2c0,0.7,0.2,1.3,0.7,1.6
			c0.5,0.3,1.5,0.5,3.3,0.5H53.1z M61.1,163v-6.9h2.2v6.9H61.1z"/>
		<path class="st2" d="M62.2,163v-6.9h15.4v6.9H62.2z"/>
		<path class="st2" d="M76.6,163v-6.9h15.4v6.9H76.6z"/>
		<path class="st2" d="M106.5,135.3c2.3,1.1,4.7,2.4,7,3.7c2.3,1.3,4.4,2.7,6.4,4.1c1.9,1.5,3.5,3,4.6,4.5s1.7,3.2,1.7,4.9
			c0,2.2-0.5,4.1-1.5,5.6s-2.3,2.6-4.1,3.4s-3.7,1.1-5.9,1.1c-1.8,0-3.6-0.2-5.6-0.6s-3.6-0.8-4.9-1.2c-1.5,0.5-3.3,1-5.2,1.4
			s-3.8,0.6-5.7,0.6h-2.5v-6.9h2.2c0.7,0,1.3,0,1.9,0c0.5,0,1.1,0,1.6-0.1c-1.5-1.8-2.2-3.9-2.2-6.4c0-1.9,0.4-3.5,1.2-4.8
			c0.8-1.4,1.9-2.4,3.3-3.2s2.9-1.3,4.5-1.4c0.4,0,0.8,0,1.2,0l-0.6-0.3L106.5,135.3z M104.7,154.4c1.2-0.5,2.1-1.3,2.7-2.1
			s0.9-1.8,0.9-2.7c0-2.4-1.2-3.6-3.5-3.6c-1.2,0-2.1,0.3-2.8,1c-0.7,0.7-1,1.5-1,2.5c0,0.9,0.3,1.9,0.9,2.7
			C102.5,153.2,103.5,153.9,104.7,154.4z M113.2,146.4c0.3,0.4,0.6,0.8,0.7,1.3c0.1,0.4,0.2,0.9,0.2,1.5c0,2.7-0.8,5-2.5,7
			c0.4,0,0.8,0.1,1.3,0.1s0.8,0,1.2,0c1.9,0,3.3-0.3,4.1-0.9c0.9-0.6,1.3-1.5,1.3-2.7c0-0.7-0.5-1.6-1.6-2.6
			C116.8,149,115.3,147.8,113.2,146.4z"/>
	</g>
</g>
<g>
	<g>
		<path class="st2" d="M1.6,187.3c0,0.3,0,0.5,0,0.7c0,0.2,0,0.4,0.1,0.5c0,0.2,0.1,0.3,0.1,0.4c0.1,0.1,0.1,0.2,0.2,0.3
			c0.1,0.1,0.2,0.1,0.3,0.2c0.1,0,0.3,0,0.5,0h0.2c0,0,0.1,0.2,0.1,0.3v0.1c0,0.2,0,0.3-0.1,0.3H2.7c-0.2,0-0.4,0-0.6-0.1
			c-0.2,0-0.3-0.1-0.4-0.2c-0.1-0.1-0.2-0.2-0.3-0.3c-0.1-0.1-0.2-0.2-0.2-0.4S1.1,189.2,1,189c0-0.1-0.1-0.3-0.1-0.5s0-0.4,0-0.6
			c0-0.2,0-0.4,0-0.7c0-1.6-0.1-2.9-0.2-4l0.7-0.5c0,0,0,0,0,0c0,0,0,0,0,0.1C1.5,183.6,1.6,185.1,1.6,187.3z"/>
		<path class="st2" d="M7.8,190c-0.3,0-1-0.2-2-0.5l0,0l0,0c-0.8,0.5-1.6,0.8-2.5,0.8H2.8c-0.1,0-0.1,0-0.2-0.1c0,0-0.1-0.1-0.1-0.3
			v-0.1c0-0.1,0-0.2,0.1-0.3c0-0.1,0.1-0.1,0.2-0.1c0.6,0,1,0,1.3,0c0.3,0,0.6-0.1,0.8-0.2l0.2-0.1l-0.2-0.1
			c-0.7-0.3-1.1-0.7-1.1-1.2c0-0.4,0.1-0.7,0.4-1.1c0.2-0.4,0.6-0.7,0.9-0.9l0.1-0.1l-0.7-0.3l0.3-0.8l1.9,0.9
			c1.5,0.7,2.3,1.6,2.3,2.5c0,0.3-0.1,0.6-0.2,0.8c-0.1,0.3-0.3,0.5-0.5,0.7S8,190,7.8,190z M6.7,187.1c0-0.2-0.1-0.4-0.3-0.5
			s-0.4-0.2-0.6-0.2c-0.2,0-0.4,0.1-0.5,0.2s-0.3,0.2-0.4,0.4s-0.2,0.3-0.3,0.5s-0.1,0.3-0.1,0.4c0,0.1,0,0.2,0.1,0.3
			c0.1,0.1,0.2,0.2,0.3,0.3c0.1,0.1,0.3,0.1,0.4,0.2c0.1,0,0.3,0.1,0.4,0.1l0,0l0,0c0.2-0.2,0.4-0.4,0.6-0.7S6.7,187.3,6.7,187.1z
			 M7.2,187c0,0.4-0.1,0.7-0.2,1s-0.3,0.6-0.5,0.8l-0.1,0.1l0.1,0c0.6,0.2,1.2,0.4,1.6,0.4h0l0,0c0.2-0.4,0.4-0.8,0.4-1.1
			c0-0.1,0-0.3-0.1-0.4s-0.1-0.2-0.3-0.3c-0.1-0.1-0.2-0.2-0.4-0.3c-0.1-0.1-0.3-0.2-0.5-0.3l-0.1-0.1V187z"/>
		<path class="st2" d="M11.7,187.6c0.5,0.7,0.7,1.4,0.7,2.1c0,0.4,0,0.7-0.1,1c-0.1,0.3-0.2,0.6-0.4,0.8s-0.3,0.4-0.5,0.6
			c-0.2,0.2-0.4,0.4-0.6,0.5c-0.2,0.1-0.4,0.2-0.6,0.3c-0.2,0.1-0.3,0.1-0.5,0.2c-0.1,0-0.2,0.1-0.3,0.1c-0.1,0-0.1,0-0.2-0.1
			L9,192.9c-0.1-0.1-0.1-0.2-0.1-0.2c0,0,0,0,0,0c0.3-0.1,0.6-0.2,0.9-0.3c0.3-0.1,0.5-0.3,0.8-0.4c0.2-0.2,0.4-0.3,0.6-0.5
			c0.2-0.2,0.3-0.4,0.4-0.6s0.1-0.5,0.1-0.7c0-0.5-0.2-1.1-0.6-1.6L11.7,187.6z"/>
		<path class="st2" d="M13.5,183.2l0.8-0.5c0,0,0,0,0,0c0,0,0,0,0,0.1c0.1,1.3,0.1,2.5,0.1,3.6c0,2.2,0,3.3,0,3.5
			c-0.1,0.2-0.3,0.4-0.6,0.4C13.7,186.7,13.6,184.3,13.5,183.2z"/>
		<path class="st2" d="M17.9,190.1c0,0.3-0.1,0.6-0.2,0.9c-0.1,0.3-0.3,0.5-0.4,0.7c-0.2,0.2-0.3,0.4-0.5,0.6
			c-0.2,0.2-0.4,0.3-0.6,0.4c-0.2,0.1-0.4,0.2-0.5,0.3c-0.2,0.1-0.3,0.1-0.4,0.2s-0.2,0-0.3,0c-0.1,0-0.1,0-0.2-0.1l-0.2-0.3
			c-0.1-0.1-0.1-0.2-0.1-0.2c0,0,0,0,0,0c0.3-0.1,0.6-0.2,0.9-0.3c0.3-0.1,0.5-0.3,0.8-0.4c0.2-0.2,0.4-0.3,0.6-0.5
			c0.2-0.2,0.3-0.4,0.4-0.6s0.1-0.5,0.1-0.7c0-0.2,0-0.5-0.1-0.7c-0.1-0.3-0.2-0.5-0.3-0.7l0.6-0.8c0.2,0.4,0.4,0.8,0.6,1
			c0.2,0.4,0.6,0.6,1,0.6h0.2c0,0,0.1,0.2,0.1,0.3v0.1c0,0.2,0,0.3-0.1,0.3h-0.1c-0.3,0-0.6-0.1-0.9-0.2l-0.1-0.1L17.9,190.1z
			 M16.9,184.8l0.7,0.7l-0.7,0.7l-0.7-0.7L16.9,184.8z"/>
		<path class="st2" d="M19,190.3c-0.1,0-0.1,0-0.2-0.1c0,0-0.1-0.1-0.1-0.3v-0.1c0-0.1,0-0.2,0.1-0.3c0-0.1,0.1-0.1,0.2-0.1h0.7
			c0.5,0,0.8-0.1,0.9-0.2c0.2-0.1,0.3-0.4,0.3-0.7c0-0.3-0.1-0.8-0.4-1.5l0.6-0.7c0,0,0,0.1,0.1,0.1c0.3,0.6,0.4,1.2,0.4,1.8
			c0,0.7-0.2,1.2-0.5,1.5c-0.3,0.4-0.8,0.5-1.4,0.5H19z M20,191.3l0.7,0.7l-0.7,0.7l-0.7-0.7L20,191.3z"/>
		<path class="st2" d="M22.7,183.2l0.8-0.5c0,0,0,0,0,0c0,0,0,0,0,0.1c0.1,1.3,0.1,2.5,0.1,3.6c0,2.2,0,3.3,0,3.5
			c-0.1,0.2-0.3,0.4-0.6,0.4C22.9,186.7,22.8,184.3,22.7,183.2z"/>
		<path class="st2" d="M29.2,187.6c0.5,0.7,0.7,1.4,0.7,2.1c0,0.4,0,0.7-0.1,1c-0.1,0.3-0.2,0.6-0.4,0.8s-0.3,0.4-0.5,0.6
			c-0.2,0.2-0.4,0.4-0.6,0.5c-0.2,0.1-0.4,0.2-0.6,0.3c-0.2,0.1-0.3,0.1-0.5,0.2c-0.1,0-0.2,0.1-0.3,0.1c-0.1,0-0.1,0-0.2-0.1
			l-0.2-0.3c-0.1-0.1-0.1-0.2-0.1-0.2c0,0,0,0,0,0c0.3-0.1,0.6-0.2,0.9-0.3c0.3-0.1,0.5-0.3,0.8-0.4c0.2-0.2,0.4-0.3,0.6-0.5
			c0.2-0.2,0.3-0.4,0.4-0.6s0.1-0.5,0.1-0.7c0-0.5-0.2-1.1-0.6-1.6L29.2,187.6z"/>
		<path class="st2" d="M30.6,192.7c1.6-0.4,2.5-1.2,2.8-2.3l0-0.1h-0.1c-0.4,0-0.7,0-0.9,0s-0.5,0-0.7-0.1c-0.2,0-0.4-0.1-0.5-0.2
			c-0.1-0.1-0.2-0.2-0.3-0.4c-0.1-0.1-0.1-0.3-0.1-0.5c0-0.4,0.1-0.7,0.2-1.1c0.1-0.3,0.3-0.6,0.5-0.9s0.5-0.4,0.8-0.4
			c0.3,0,0.5,0.1,0.7,0.2c0.2,0.1,0.4,0.3,0.5,0.6c0.1,0.2,0.2,0.5,0.3,0.8s0.1,0.6,0.1,1v0.1h0.1h0.6c0,0,0.1,0.2,0.1,0.3v0.1
			c0,0.2,0,0.3-0.1,0.3h-0.7H34l0,0.1c-0.1,0.4-0.2,0.7-0.3,1c-0.2,0.3-0.4,0.6-0.6,0.8c-0.3,0.2-0.5,0.4-0.9,0.6
			c-0.3,0.2-0.6,0.3-1,0.4c-0.1,0-0.2,0-0.2-0.1l-0.3-0.3C30.6,192.8,30.6,192.8,30.6,192.7C30.6,192.7,30.6,192.7,30.6,192.7
			C30.6,192.7,30.6,192.7,30.6,192.7z M32.5,189.5c0.4,0,0.6,0,0.8,0h0.1l0-0.1c-0.1-1.2-0.5-1.8-1.1-1.8c-0.3,0-0.5,0.1-0.6,0.4
			c-0.2,0.3-0.2,0.6-0.2,0.9c0,0.1,0,0.2,0.1,0.3c0,0.1,0.1,0.1,0.2,0.2c0.1,0,0.1,0.1,0.2,0.1c0.1,0,0.2,0,0.3,0
			C32.3,189.5,32.4,189.5,32.5,189.5z"/>
		<path class="st2" d="M36,187.8l-0.3-0.2c0.2-0.5,0.4-0.8,0.7-1.1s0.6-0.4,1-0.4c0.3,0,0.8,0.2,1.5,0.5c1.2,0.5,2.1,0.8,2.9,0.8
			c0,0,0,0,0,0c0,0,0,0,0,0.1l-0.2,0.8c-0.3,0-0.8,0.1-1.2,0.3l0,0v0.1c0,0.1,0,0.3,0.1,0.4c0.1,0.1,0.2,0.2,0.3,0.2
			c0.1,0,0.3,0.1,0.5,0.1h1.2c0,0,0,0.1,0,0.1c0,0.1,0,0.1,0,0.2v0.1c0,0.2,0,0.3-0.1,0.3h-1.2c-0.9,0-1.3-0.4-1.4-1.2l0-0.1
			l-0.1,0.1c-0.2,0.1-0.4,0.2-0.6,0.3c-0.1,0.1-0.3,0.2-0.5,0.3c-0.2,0.1-0.4,0.2-0.6,0.3c-0.2,0.1-0.4,0.1-0.6,0.2
			c-0.2,0.1-0.5,0.1-0.7,0.2c-0.2,0-0.5,0-0.7,0h-1c-0.1,0-0.1,0-0.2-0.1c0,0-0.1-0.1-0.1-0.3v-0.1c0-0.1,0-0.2,0.1-0.3
			c0-0.1,0.1-0.1,0.2-0.1h1.2c0.6,0,1.2-0.1,1.9-0.4s1.4-0.6,2-1l0.2-0.1l-0.2,0c-0.2,0-0.7-0.2-1.5-0.5c-0.5-0.2-0.9-0.3-1.2-0.3
			C36.8,187.1,36.4,187.3,36,187.8z"/>
		<path class="st2" d="M42.2,190.3c-0.1,0-0.1,0-0.2-0.1c0,0-0.1-0.1-0.1-0.3v-0.1c0-0.1,0-0.2,0.1-0.3c0-0.1,0.1-0.1,0.2-0.1h0.1
			c0.2,0,0.4-0.1,0.7-0.3s0.5-0.6,0.9-1.1c0.2-0.2,0.3-0.4,0.5-0.6c0.1-0.2,0.3-0.3,0.4-0.4c0.1-0.1,0.3-0.2,0.4-0.3
			s0.3-0.1,0.4-0.1c0.3,0,0.6,0.1,0.8,0.4c0.3,0.2,0.4,0.5,0.6,0.9c0.1,0.3,0.2,0.6,0.2,0.9c0,0.5-0.1,0.9-0.4,1.2
			c-0.3,0.3-0.5,0.5-0.7,0.5c-0.5,0-1.2-0.4-2.1-1.1l-0.1,0l0,0.1c-0.2,0.3-0.5,0.6-0.8,0.7C42.8,190.2,42.5,190.3,42.2,190.3
			L42.2,190.3z M46.1,189.5c0.2,0,0.3-0.1,0.4-0.2c0.1-0.1,0.2-0.3,0.2-0.5c0-0.3-0.1-0.6-0.3-0.9c-0.2-0.3-0.4-0.5-0.7-0.5
			c-0.3,0-0.8,0.3-1.2,1l0,0.1l0.1,0C45.1,189.2,45.7,189.5,46.1,189.5z"/>
		<path class="st2" d="M52.1,190.3c-0.5,0-0.9-0.1-1.2-0.4c-0.3-0.3-0.5-0.6-0.5-1.1c0-0.7,0.4-1.6,1.1-2.6c0-0.1,0.1-0.1,0.1-0.1
			c0,0,0.1,0,0.1,0c0.7,0.3,1.3,0.7,1.6,1.1c0.4,0.4,0.5,0.9,0.5,1.4c0,0.5-0.2,1-0.5,1.3S52.6,190.3,52.1,190.3z M51.7,187
			c-0.5,0.6-0.7,1.2-0.7,1.6c0,0.5,0.4,0.8,1.2,0.8c0.4,0,0.7-0.1,0.9-0.2c0.2-0.1,0.3-0.3,0.3-0.6c0-0.5-0.5-1.1-1.6-1.6L51.7,187
			L51.7,187z"/>
		<path class="st2" d="M55.5,188.7c0,0,0,0.1,0,0.1c0,0.3,0.1,0.4,0.3,0.5c0.2,0.1,0.4,0.2,0.8,0.2c1.4,0,2.1-0.3,2.1-0.8
			c0-0.2-0.1-0.4-0.2-0.6s-0.3-0.4-0.5-0.7c-0.2-0.2-0.5-0.4-0.7-0.7c-0.3-0.2-0.6-0.4-0.9-0.6l0.3-0.9c0,0,0,0,0,0
			c0,0,0.1,0,0.2,0.1c1.6,1.3,2.4,2.4,2.4,3.3c0,0.4-0.1,0.7-0.4,1c-0.2,0.3-0.6,0.5-1,0.6c-0.4,0.1-0.8,0.2-1.4,0.2
			c-0.6,0-1-0.1-1.2-0.3c-0.3-0.2-0.4-0.5-0.4-0.9c0-0.1,0-0.3,0.1-0.5L55.5,188.7z"/>
		<path class="st2" d="M60.4,183.2l0.8-0.5c0,0,0,0,0,0c0,0,0,0,0,0.1c0.1,1.3,0.1,2.5,0.1,3.6c0,2.2,0,3.3,0,3.5
			c-0.1,0.2-0.3,0.4-0.6,0.4C60.7,186.7,60.5,184.3,60.4,183.2z"/>
		<path class="st2" d="M63.1,188.7c0,0,0,0.1,0,0.1c0,0.3,0.1,0.4,0.3,0.5c0.2,0.1,0.4,0.2,0.8,0.2c1.4,0,2.1-0.3,2.1-0.8
			c0-0.2-0.1-0.4-0.2-0.6c-0.1-0.2-0.3-0.4-0.5-0.7c-0.2-0.2-0.5-0.4-0.7-0.7c-0.3-0.2-0.6-0.4-0.9-0.6l0.3-0.9c0,0,0,0,0,0
			c0,0,0.1,0,0.2,0.1c1.6,1.3,2.4,2.4,2.4,3.3c0,0.4-0.1,0.7-0.4,1c-0.2,0.3-0.6,0.5-1,0.6c-0.4,0.1-0.8,0.2-1.4,0.2
			c-0.6,0-1-0.1-1.2-0.3c-0.3-0.2-0.4-0.5-0.4-0.9c0-0.1,0-0.3,0.1-0.5L63.1,188.7z"/>
		<path class="st2" d="M76.3,187.4c-0.3,0-0.6,0-0.8,0.1c-0.2,0.1-0.5,0.2-0.6,0.3c-0.2,0.1-0.3,0.3-0.4,0.5
			c-0.1,0.2-0.2,0.4-0.3,0.7l0,0.1l0.1,0l1.5,0.4c0.5,0.1,0.8,0.4,0.8,0.8c0,0.3,0,0.5-0.1,0.8s-0.2,0.5-0.4,0.7
			c-0.2,0.2-0.4,0.4-0.7,0.6s-0.6,0.3-1,0.4S73.5,193,73,193c-0.9,0-1.6-0.2-2.2-0.7s-0.8-1.1-0.8-2c0-0.7,0.2-1.4,0.5-2.2l0.5,0.1
			c-0.2,0.7-0.3,1.3-0.3,1.8c0,0.7,0.2,1.2,0.6,1.6c0.4,0.4,1,0.5,1.8,0.5c0.4,0,0.7,0,1.1-0.1c0.3-0.1,0.6-0.2,0.8-0.3
			s0.4-0.2,0.6-0.4c0.2-0.1,0.3-0.3,0.3-0.4s0.1-0.2,0.1-0.3c0,0,0-0.1,0-0.1c0,0-0.1-0.1-0.1-0.1s-0.1,0-0.1,0l-1.4-0.4
			c-0.2-0.1-0.3-0.1-0.5-0.1c-0.1,0-0.2-0.1-0.2-0.2c-0.1-0.1-0.1-0.2-0.1-0.3c0-0.2,0-0.4,0.1-0.6c0.1-0.2,0.1-0.5,0.3-0.8
			c0.1-0.3,0.3-0.5,0.5-0.8c0.2-0.2,0.5-0.4,0.8-0.6c0.3-0.2,0.7-0.2,1.1-0.2c0.2,0,0.4,0,0.6,0.1l-0.2,0.8
			C76.6,187.4,76.5,187.4,76.3,187.4z"/>
		<path class="st2" d="M80,187.6c0.5,0.7,0.7,1.4,0.7,2.1c0,0.4,0,0.7-0.1,1c-0.1,0.3-0.2,0.6-0.4,0.8s-0.3,0.4-0.5,0.6
			c-0.2,0.2-0.4,0.4-0.6,0.5c-0.2,0.1-0.4,0.2-0.6,0.3c-0.2,0.1-0.3,0.1-0.5,0.2s-0.2,0.1-0.3,0.1c-0.1,0-0.1,0-0.2-0.1l-0.2-0.3
			c-0.1-0.1-0.1-0.2-0.1-0.2c0,0,0,0,0,0c0.3-0.1,0.6-0.2,0.9-0.3c0.3-0.1,0.5-0.3,0.8-0.4s0.4-0.3,0.6-0.5c0.2-0.2,0.3-0.4,0.4-0.6
			c0.1-0.2,0.1-0.5,0.1-0.7c0-0.5-0.2-1.1-0.6-1.6L80,187.6z M79.6,184.6l0.7,0.7l-0.7,0.7l-0.7-0.7L79.6,184.6z"/>
		<path class="st2" d="M82.5,187.3c0,0.3,0,0.5,0,0.7c0,0.2,0,0.4,0.1,0.5c0,0.2,0.1,0.3,0.1,0.4c0.1,0.1,0.1,0.2,0.2,0.3
			c0.1,0.1,0.2,0.1,0.3,0.2c0.1,0,0.3,0,0.5,0h0.2c0,0,0.1,0.2,0.1,0.3v0.1c0,0.2,0,0.3-0.1,0.3h-0.2c-0.2,0-0.4,0-0.6-0.1
			s-0.3-0.1-0.4-0.2c-0.1-0.1-0.2-0.2-0.3-0.3c-0.1-0.1-0.2-0.2-0.2-0.4c-0.1-0.1-0.1-0.3-0.1-0.4c0-0.1-0.1-0.3-0.1-0.5
			s0-0.4,0-0.6c0-0.2,0-0.4,0-0.7c0-1.6-0.1-2.9-0.2-4l0.7-0.5c0,0,0,0,0,0c0,0,0,0,0,0.1C82.5,183.6,82.5,185.1,82.5,187.3z"/>
		<path class="st2" d="M90,189.5c0.3,0,0.6-0.1,0.7-0.2c0.2-0.2,0.3-0.4,0.3-0.7c0-0.2-0.1-0.7-0.4-1.5l0.6-0.7c0,0,0,0.1,0.1,0.1
			c0.3,0.7,0.5,1.3,0.5,1.9c0,0.5-0.2,1-0.5,1.4c-0.3,0.4-0.7,0.6-1.1,0.6c-0.6,0-1.1-0.2-1.3-0.7l-0.1-0.1l-0.1,0.1
			c-0.3,0.5-0.8,0.7-1.3,0.7c-0.6,0-1-0.2-1.3-0.7l-0.1-0.1l-0.1,0.1c-0.3,0.5-0.8,0.7-1.6,0.7h-0.4c-0.1,0-0.1,0-0.2-0.1
			c0,0-0.1-0.1-0.1-0.3v-0.1c0-0.1,0-0.2,0.1-0.3s0.1-0.1,0.2-0.1h0.5c0.4,0,0.7-0.1,1-0.2s0.4-0.4,0.4-0.7l0.1-1h0.5l0.1,1
			c0,0.3,0.1,0.5,0.3,0.7c0.2,0.2,0.4,0.2,0.7,0.2c0.3,0,0.6-0.1,0.7-0.2s0.3-0.4,0.3-0.7l0.1-1h0.5l0.1,1c0,0.3,0.1,0.5,0.3,0.7
			C89.4,189.4,89.7,189.5,90,189.5z"/>
		<path class="st2" d="M96.5,189.3c-0.5,0.7-1.2,1-2.2,1c-0.6,0-1-0.1-1.2-0.3c-0.3-0.2-0.4-0.5-0.4-0.9c0-0.1,0-0.3,0.1-0.5l0.5,0
			c0,0.3,0.1,0.5,0.3,0.6c0.2,0.1,0.5,0.2,0.8,0.2c1.2,0,1.8-0.3,1.8-0.9c0-0.1,0-0.2-0.1-0.3l-0.9-2.5l0.5-0.6c0,0,0,0,0.1,0
			c0,0,0,0,0,0.1l1,2.9c0.3,0.9,0.8,1.4,1.4,1.4h0.1c0,0,0,0.1,0,0.1c0,0.1,0,0.1,0,0.2v0.1c0,0.2,0,0.3-0.1,0.3h-0.1
			c-0.7,0-1.2-0.3-1.5-1l-0.1-0.1L96.5,189.3z"/>
		<path class="st2" d="M98.2,190.3c-0.1,0-0.1,0-0.2-0.1c0,0-0.1-0.1-0.1-0.3v-0.1c0-0.1,0-0.2,0.1-0.3s0.1-0.1,0.2-0.1h0.6
			c0.4,0,0.7-0.1,0.9-0.2c0.2-0.2,0.4-0.4,0.4-0.7l0.1-1.1h0.5l0.1,1.1c0,0.3,0.1,0.5,0.3,0.7s0.5,0.2,0.8,0.2h0.1
			c0,0,0.1,0.2,0.1,0.3v0.1c0,0.2,0,0.3-0.1,0.3H102c-0.4,0-0.7-0.1-0.9-0.2c-0.2-0.1-0.4-0.3-0.6-0.5l-0.1-0.1l-0.1,0.1
			c-0.3,0.5-0.9,0.7-1.6,0.7H98.2z M100.1,184.4l0.7,0.7l-0.7,0.7l-0.7-0.7L100.1,184.4z"/>
		<path class="st2" d="M102,189.5h0.2c0.3,0,0.5-0.1,0.7-0.2c0.2-0.2,0.5-0.5,0.9-0.9c0.3-0.4,0.5-0.7,0.7-0.9
			c0.2-0.2,0.4-0.3,0.5-0.4c0.1-0.1,0.3-0.1,0.5-0.1c0.1,0,0.3,0,0.4,0.1c0.1,0.1,0.3,0.2,0.4,0.3c0.1,0.1,0.2,0.2,0.3,0.4
			s0.2,0.3,0.3,0.5s0.2,0.3,0.3,0.5c0.1,0.2,0.3,0.4,0.4,0.5c0.2,0.1,0.4,0.2,0.6,0.2h0.1c0,0,0,0.1,0,0.1c0,0.1,0,0.1,0,0.2v0.1
			c0,0.2,0,0.3-0.1,0.3h-0.1c-0.2,0-0.5,0-0.7-0.1c-0.2-0.1-0.4-0.2-0.6-0.4l-0.1-0.1l-0.1,0.1c-0.3,0.6-0.7,0.8-1,0.8
			c-0.5,0-1.2-0.3-2.1-1l-0.1,0l0,0.1c-0.4,0.5-0.9,0.7-1.5,0.7H102c-0.1,0-0.1,0-0.2-0.1c0,0-0.1-0.1-0.1-0.3v-0.1
			c0-0.1,0-0.2,0.1-0.3S102,189.5,102,189.5z M104.3,188.9c0.6,0.6,1.1,0.8,1.5,0.8c0.2,0,0.4-0.1,0.5-0.2s0.2-0.3,0.2-0.5
			c0-0.3-0.1-0.6-0.3-0.8s-0.5-0.4-0.7-0.4c-0.2,0-0.3,0.1-0.5,0.3s-0.4,0.4-0.6,0.7L104.3,188.9L104.3,188.9z"/>
		<path class="st2" d="M114.5,189.5c0.3,0,0.6-0.1,0.7-0.2c0.2-0.2,0.3-0.4,0.3-0.7c0-0.2-0.1-0.7-0.4-1.5l0.6-0.7
			c0,0,0,0.1,0.1,0.1c0.3,0.7,0.5,1.3,0.5,1.9c0,0.5-0.2,1-0.5,1.4c-0.3,0.4-0.7,0.6-1.1,0.6c-0.6,0-1.1-0.2-1.3-0.7l-0.1-0.1
			l-0.1,0.1c-0.3,0.5-0.8,0.7-1.3,0.7c-0.6,0-1-0.2-1.3-0.7l-0.1-0.1l-0.1,0.1c-0.3,0.5-0.8,0.7-1.6,0.7h-0.4c-0.1,0-0.1,0-0.2-0.1
			c0,0-0.1-0.1-0.1-0.3v-0.1c0-0.1,0-0.2,0.1-0.3s0.1-0.1,0.2-0.1h0.5c0.4,0,0.7-0.1,1-0.2s0.4-0.4,0.4-0.7l0.1-1h0.5l0.1,1
			c0,0.3,0.1,0.5,0.3,0.7c0.2,0.2,0.4,0.2,0.7,0.2c0.3,0,0.6-0.1,0.7-0.2s0.3-0.4,0.3-0.7l0.1-1h0.5l0.1,1c0,0.3,0.1,0.5,0.3,0.7
			C114,189.4,114.2,189.5,114.5,189.5z M112.2,184.6l0.6,0.6l-0.6,0.6l-0.6-0.6L112.2,184.6z M113,183.4l0.6,0.6l-0.6,0.6l-0.6-0.6
			L113,183.4z M113.8,184.6l0.6,0.6l-0.6,0.6l-0.6-0.6L113.8,184.6z"/>
		<path class="st2" d="M116.9,192.7c1.6-0.4,2.5-1.2,2.8-2.3l0-0.1h-0.1c-0.4,0-0.7,0-0.9,0c-0.2,0-0.5,0-0.7-0.1
			c-0.2,0-0.4-0.1-0.5-0.2c-0.1-0.1-0.2-0.2-0.3-0.4s-0.1-0.3-0.1-0.5c0-0.4,0.1-0.7,0.2-1.1c0.1-0.3,0.3-0.6,0.5-0.9
			c0.2-0.2,0.5-0.4,0.8-0.4c0.3,0,0.5,0.1,0.7,0.2c0.2,0.1,0.4,0.3,0.5,0.6c0.1,0.2,0.2,0.5,0.3,0.8s0.1,0.6,0.1,1v0.1h0.1h0.6
			c0,0,0.1,0.2,0.1,0.3v0.1c0,0.2,0,0.3-0.1,0.3h-0.7h-0.1l0,0.1c-0.1,0.4-0.2,0.7-0.3,1s-0.4,0.6-0.6,0.8s-0.5,0.4-0.9,0.6
			c-0.3,0.2-0.6,0.3-1,0.4c-0.1,0-0.2,0-0.2-0.1l-0.3-0.3C117,192.8,116.9,192.8,116.9,192.7C116.9,192.7,116.9,192.7,116.9,192.7
			C116.9,192.7,116.9,192.7,116.9,192.7z M118.9,189.5c0.4,0,0.6,0,0.8,0h0.1l0-0.1c-0.1-1.2-0.5-1.8-1.1-1.8
			c-0.3,0-0.5,0.1-0.6,0.4c-0.2,0.3-0.2,0.6-0.2,0.9c0,0.1,0,0.2,0.1,0.3c0,0.1,0.1,0.1,0.2,0.2c0.1,0,0.1,0.1,0.2,0.1
			c0.1,0,0.2,0,0.3,0S118.7,189.5,118.9,189.5z"/>
		<path class="st2" d="M126,190c-0.3,0-1-0.2-2-0.5l0,0l0,0c-0.8,0.5-1.6,0.8-2.5,0.8h-0.4c-0.1,0-0.1,0-0.2-0.1
			c0,0-0.1-0.1-0.1-0.3v-0.1c0-0.1,0-0.2,0.1-0.3s0.1-0.1,0.2-0.1c0.6,0,1,0,1.3,0s0.6-0.1,0.8-0.2l0.2-0.1l-0.2-0.1
			c-0.7-0.3-1.1-0.7-1.1-1.2c0-0.4,0.1-0.7,0.4-1.1s0.6-0.7,1-0.9l0.1-0.1l-0.7-0.3l0.3-0.8l1.9,0.9c1.5,0.7,2.3,1.6,2.3,2.5
			c0,0.3-0.1,0.6-0.2,0.8c-0.1,0.3-0.3,0.5-0.5,0.7C126.5,189.9,126.3,190,126,190z M124.9,187.1c0-0.2-0.1-0.4-0.3-0.5
			s-0.4-0.2-0.6-0.2c-0.2,0-0.4,0.1-0.5,0.2c-0.2,0.1-0.3,0.2-0.4,0.4c-0.1,0.2-0.2,0.3-0.3,0.5s-0.1,0.3-0.1,0.4
			c0,0.1,0,0.2,0.1,0.3c0.1,0.1,0.2,0.2,0.3,0.3c0.1,0.1,0.3,0.1,0.4,0.2c0.1,0,0.3,0.1,0.4,0.1l0,0l0,0c0.2-0.2,0.4-0.4,0.6-0.7
			S124.9,187.3,124.9,187.1z M125.4,187c0,0.4-0.1,0.7-0.2,1c-0.1,0.3-0.3,0.6-0.5,0.8l-0.1,0.1l0.1,0c0.6,0.2,1.2,0.4,1.6,0.4h0
			l0,0c0.2-0.4,0.4-0.8,0.4-1.1c0-0.1,0-0.3-0.1-0.4c-0.1-0.1-0.1-0.2-0.3-0.3c-0.1-0.1-0.2-0.2-0.4-0.3c-0.1-0.1-0.3-0.2-0.5-0.3
			l-0.1-0.1V187z"/>
	</g>
</g>
<g>
</g>
<g>
</g>
<g>
</g>
<g>
</g>
<g>
</g>
<g>
</g>
<g>
</g>
<g>
</g>
<g>
</g>
<g>
</g>
<g>
</g>
<g>
</g>
<g>
</g>
<g>
</g>
<g>
</g>
</svg>
