<svg xmlns="http://www.w3.org/2000/svg" width="76.86" height="79.339" viewBox="0 0 76.86 79.339"><g transform="translate(-168.979 -430.437)"><g transform="translate(168.979 430.437)"><g transform="translate(0)"><path d="M177.5,261.406c-1.519-2.888-9.157-5.958-20.32-5.958s-18.8,3.069-20.32,5.958a1.34,1.34,0,0,0,0,1.22l6.652,13.3a10.5,10.5,0,0,1,3.472-2.019,32.984,32.984,0,0,1,20.384,0,10.505,10.505,0,0,1,3.472,2.019l6.652-13.3A1.34,1.34,0,0,0,177.5,261.406Zm-32.782,9.987-2.484-7.959,2.62-.818,2.484,7.959Zm5.275-2.242-1.373-8.235,2.708-.451L152.7,268.7Zm8.559-1.255h-2.745V259.66h2.745Zm5.814,1.255-2.708-.451,1.373-8.235,2.708.451Zm5.275,2.242-2.62-.818,2.484-7.959,2.62.818Z" transform="translate(-118.75 -228.093)" fill="#d6d6d6"/><path d="M205.571,371.091a30.313,30.313,0,0,0-18.437,0c-2.165.821-3.134,1.8-3.134,2.4s.969,1.577,3.134,2.4a30.314,30.314,0,0,0,18.437,0c2.165-.821,3.134-1.8,3.134-2.4S207.736,371.912,205.571,371.091Zm-7.846,3.77H194.98v-2.745h2.745Z" transform="translate(-157.922 -322.706)" fill="#d6d6d6"/><path d="M70.651,162.745c10.794,0,20.962,1.6,28.632,4.511,4.341,1.647,7.632,3.632,9.753,5.836-.457-3.164-4.308-6.325-10.727-8.76C90.943,161.539,81.121,160,70.651,160s-20.292,1.539-27.658,4.333c-6.418,2.434-10.27,5.6-10.726,8.76,2.121-2.2,5.413-4.19,9.753-5.836C49.689,164.347,59.857,162.745,70.651,162.745Z" transform="translate(-32.221 -149.02)" fill="#d6d6d6"/><path d="M98.088,196.333C90.722,193.539,80.9,192,70.43,192s-20.292,1.539-27.658,4.333C35.926,198.93,32,202.353,32,205.725c0,4.635,7.419,9.211,18.735,11.716l-3.076-6.151a4.092,4.092,0,0,1,.021-3.725c1.473-2.8,5.342-4.507,8.33-5.447a49.689,49.689,0,0,1,14.42-1.978,49.689,49.689,0,0,1,14.42,1.978c2.987.939,6.857,2.647,8.33,5.447a4.092,4.092,0,0,1,.021,3.726l-3.075,6.151c11.316-2.506,18.735-7.081,18.735-11.716C108.86,202.353,104.934,198.93,98.088,196.333ZM37.49,207.1H34.745v-2.745H37.49ZM71.8,197.49H69.058v-2.745H71.8Zm34.313,9.608H103.37v-2.745h2.745Z" transform="translate(-32 -175.53)" fill="#d6d6d6"/><path d="M98.088,100.333C90.722,97.539,80.9,96,70.43,96s-20.292,1.539-27.658,4.333C35.926,102.93,32,106.353,32,109.725v4.907c2.119-2.223,5.427-4.227,9.8-5.885,7.669-2.91,17.838-4.512,28.632-4.512s20.962,1.6,28.632,4.511c4.372,1.658,7.68,3.661,9.8,5.885v-4.906C108.86,106.353,104.934,102.93,98.088,100.333Z" transform="translate(-32 -96)" fill="#d6d6d6"/></g></g><g transform="translate(233.174 509.776) rotate(180)"><g transform="translate(0)"><g transform="translate(0 0)"><path d="M51.256,11.064a34.587,34.587,0,0,0-50.713,0A2.023,2.023,0,1,0,3.5,13.823a30.54,30.54,0,0,1,44.792,0,2.023,2.023,0,1,0,2.96-2.759Z" fill="#ff3953"/></g></g><g transform="translate(7.385 11.74)"><g transform="translate(0 0)"><path d="M36.441,7.68A25.2,25.2,0,0,0,18.514,0,25.2,25.2,0,0,0,.587,7.68,2.023,2.023,0,0,0,3.46,10.53,21.183,21.183,0,0,1,18.514,4.047a21.185,21.185,0,0,1,15.054,6.484A2.023,2.023,0,1,0,36.441,7.68Z" fill="#ff3953"/></g></g></g></g></svg>